<svg width="24" height="24" viewBox="0 0 24 24" fill="none" xmlns="http://www.w3.org/2000/svg">
<path d="M8.57329 14.6026C8.80103 14.3749 9.17027 14.3749 9.39802 14.6026C9.62576 14.8304 9.62576 15.1996 9.39802 15.4274L6.99133 17.833H8.69342C8.98865 17.833 9.23265 18.0524 9.27126 18.3371L9.27659 18.4162C9.27659 18.7383 9.01549 18.9994 8.69342 18.9994H5.58317C5.26109 18.9994 5 18.7383 5 18.4162V15.306C5 14.9839 5.26109 14.7228 5.58317 14.7228C5.90525 14.7228 6.16634 14.9839 6.16634 15.306V17.008L8.57329 14.6026ZM15.3066 18.9994C14.9845 18.9994 14.7234 18.7383 14.7234 18.4162C14.7234 18.0941 14.9845 17.833 15.3066 17.833H17.0063L14.6025 15.4272C14.3955 15.2201 14.3768 14.8961 14.5463 14.6678L14.6028 14.6025C14.8306 14.3748 15.1999 14.375 15.4275 14.6028L17.8337 17.0104V15.306C17.8337 15.0107 18.0531 14.7667 18.3377 14.7281L18.4168 14.7228C18.7389 14.7228 19 14.9839 19 15.306V18.4162C19 18.7383 18.7389 18.9994 18.4168 18.9994H15.3066ZM8.69342 5C9.01549 5 9.27659 5.26109 9.27659 5.58317C9.27659 5.90525 9.01549 6.16634 8.69342 6.16634H6.99289L9.39753 8.5728C9.60449 8.77992 9.62318 9.10391 9.45369 9.33214L9.3972 9.39753C9.16937 9.62518 8.80013 9.62504 8.57248 9.3972L6.16634 6.989V8.69342C6.16634 8.98865 5.94695 9.23265 5.6623 9.27126L5.58317 9.27659C5.26109 9.27659 5 9.01549 5 8.69342V5.58317C5 5.26109 5.26109 5 5.58317 5H8.69342ZM18.4168 5C18.7389 5 19 5.26109 19 5.58317V8.69342C19 9.01549 18.7389 9.27659 18.4168 9.27659C18.0947 9.27659 17.8336 9.01549 17.8336 8.69342V6.98978L15.4274 9.39728C15.2204 9.60436 14.8965 9.62325 14.6681 9.4539L14.6027 9.39745C14.3749 9.16975 14.3748 8.80051 14.6025 8.57272L17.0071 6.16634H15.3066C15.0113 6.16634 14.7673 5.94695 14.7287 5.6623L14.7234 5.58317C14.7234 5.26109 14.9845 5 15.3066 5H18.4168Z" fill="#23272E"/>
</svg>
