<svg width="25" height="24" viewBox="0 0 25 24" fill="none" xmlns="http://www.w3.org/2000/svg">
<circle cx="3.40426" cy="3.40426" r="3.40426" transform="matrix(-1 0 0 1 15.7666 5)" stroke="#23272E" stroke-width="1.5"/>
<path d="M6.40527 16.8604C6.40527 16.1282 6.86557 15.475 7.55514 15.2287V15.2287C10.664 14.1184 14.0614 14.1184 17.1703 15.2287V15.2287C17.8599 15.475 18.3202 16.1282 18.3202 16.8604V17.98C18.3202 18.9905 17.4251 19.7668 16.4247 19.6239L16.0911 19.5763C13.6181 19.223 11.1074 19.223 8.63432 19.5763L8.30077 19.6239C7.30034 19.7668 6.40527 18.9905 6.40527 17.98V16.8604Z" stroke="#23272E" stroke-width="1.5"/>
<path d="M17.4698 11.9023C18.947 11.9023 20.1445 10.7047 20.1445 9.22751C20.1445 7.75027 18.947 6.55273 17.4698 6.55273" stroke="#23272E" stroke-width="1.5" stroke-linecap="round"/>
<path d="M20.3995 18.0036L20.6615 18.041C21.4476 18.1533 22.1508 17.5434 22.1508 16.7493V15.8697C22.1508 15.2944 21.7892 14.7812 21.2474 14.5877C20.7069 14.3946 20.1554 14.2443 19.5977 14.1367" stroke="#23272E" stroke-width="1.5" stroke-linecap="round"/>
<path d="M6.83102 11.9023C5.35379 11.9023 4.15625 10.7047 4.15625 9.22751C4.15625 7.75027 5.35379 6.55273 6.83102 6.55273" stroke="#23272E" stroke-width="1.5" stroke-linecap="round"/>
<path d="M3.90133 18.0036L3.63925 18.041C2.8532 18.1533 2.14993 17.5434 2.14993 16.7493V15.8697C2.14993 15.2944 2.5116 14.7812 3.0534 14.5877C3.59385 14.3946 4.14539 14.2443 4.70312 14.1367" stroke="#23272E" stroke-width="1.5" stroke-linecap="round"/>
</svg>
