<svg width="32" height="32" viewBox="0 0 32 32" fill="none" xmlns="http://www.w3.org/2000/svg">
<path d="M15.5 16.9491C17.3047 16.9491 18.776 15.131 18.776 12.9189C18.776 10.732 17.3125 9 15.5 9C13.703 9 12.224 10.7577 12.224 12.9359C12.2313 15.1398 13.7025 16.9491 15.5 16.9491ZM6.76375 17.137C8.32561 17.137 9.6073 15.5502 9.6073 13.604C9.6073 11.701 8.34114 10.1658 6.76375 10.1658C5.20138 10.1658 3.91191 11.7262 3.91968 13.6209C3.92745 15.559 5.20138 17.137 6.76375 17.137ZM24.244 17.137C25.7986 17.137 27.0803 15.559 27.0803 13.6209C27.0881 11.7262 25.7986 10.1658 24.244 10.1658C22.6594 10.1658 21.3927 11.7004 21.3927 13.604C21.3927 15.5502 22.6744 17.137 24.244 17.137ZM15.5 15.6539C14.3928 15.6539 13.4446 14.4536 13.4446 12.9359C13.4446 11.444 14.3778 10.2952 15.5005 10.2952C16.63 10.2952 17.5554 11.427 17.5554 12.9183C17.5554 14.4366 16.6222 15.6539 15.5 15.6539ZM6.76375 15.86C5.83834 15.86 5.04964 14.8564 5.04964 13.6215C5.04964 12.413 5.83057 11.4434 6.76375 11.4434C7.7192 11.4434 8.48511 12.3954 8.48511 13.6046C8.48511 14.8564 7.69641 15.86 6.76375 15.86ZM24.244 15.86C23.3036 15.86 22.5149 14.8564 22.5149 13.6046C22.5149 12.3954 23.2808 11.444 24.244 11.444C25.1767 11.444 25.9504 12.413 25.9504 13.6221C25.9504 14.8564 25.1689 15.86 24.244 15.86ZM2.54684 25H8.50012C8.13607 24.7687 7.85539 24.254 7.90873 23.7312H2.3573C2.20557 23.7312 2.12996 23.6627 2.12996 23.4999C2.12996 21.3733 4.27596 19.3837 6.75598 19.3837C7.71143 19.3837 8.56848 19.6413 9.30384 20.1296C9.54783 19.7801 9.83671 19.4738 10.1609 19.2209C9.18266 18.4919 8.00712 18.1148 6.75598 18.1148C3.57841 18.1148 1 20.7216 1 23.5772C1 24.5287 1.51579 25 2.54684 25ZM28.4604 25C29.4842 25 30 24.5287 30 23.5772C30 20.7216 27.4211 18.1148 24.244 18.1148C22.9929 18.1148 21.8246 18.4919 20.8391 19.2215C21.1804 19.4867 21.4605 19.7871 21.7039 20.1296C22.4315 19.6413 23.2958 19.3837 24.244 19.3837C26.724 19.3837 28.87 21.3733 28.87 23.4999C28.87 23.6627 28.8017 23.7312 28.6499 23.7312H23.0985C23.1441 24.254 22.8712 24.7687 22.5071 25H28.4604ZM10.7373 25H20.2627C21.5211 25 22.1208 24.5714 22.1208 23.6281C22.1208 21.3815 19.6102 18.1318 15.5 18.1318C11.382 18.1318 8.87143 21.3815 8.87143 23.6281C8.87143 24.5714 9.47111 25 10.7373 25ZM10.3732 23.706C10.1764 23.706 10.0931 23.6457 10.0931 23.4659C10.0931 22.0589 12.0195 19.427 15.5 19.427C18.9733 19.427 20.8997 22.0589 20.8997 23.4653C20.8997 23.6457 20.8236 23.7054 20.6268 23.7054L10.3732 23.706Z" fill="white"/>
</svg>
