<svg width="32.000000" height="32.000000" viewBox="0 0 32 32" fill="none" xmlns="http://www.w3.org/2000/svg" xmlns:xlink="http://www.w3.org/1999/xlink">
	<desc>
			Created with Pixso.
	</desc>
	<defs>
		<clipPath id="clip2_3556">
			<rect id="Frame 1010105108" width="32.000000" height="32.000000" fill="white" fill-opacity="0"/>
		</clipPath>
	</defs>
	<g clip-path="url(#clip2_3556)">
		<path id="Vector" d="M15.5 16.9492C17.3047 16.9492 18.776 15.1309 18.776 12.918C18.776 10.7324 17.3125 9 15.5 9C13.703 9 12.224 10.7578 12.224 12.9355C12.2313 15.1406 13.7025 16.9492 15.5 16.9492ZM6.76379 17.1367C8.32556 17.1367 9.6073 15.5508 9.6073 13.6035C9.6073 11.7012 8.34119 10.166 6.76379 10.166C5.20142 10.166 3.91187 11.7266 3.91968 13.6211C3.92749 15.5586 5.20142 17.1367 6.76379 17.1367ZM24.244 17.1367C25.7986 17.1367 27.0803 15.5586 27.0803 13.6211C27.0881 11.7266 25.7986 10.166 24.244 10.166C22.6594 10.166 21.3927 11.7012 21.3927 13.6035C21.3927 15.5508 22.6744 17.1367 24.244 17.1367ZM15.5 15.6543C14.3928 15.6543 13.4446 14.4531 13.4446 12.9355C13.4446 11.4434 14.3778 10.2949 15.5005 10.2949C16.63 10.2949 17.5554 11.4277 17.5554 12.918C17.5554 14.4375 16.6222 15.6543 15.5 15.6543ZM6.76379 15.8594C5.83838 15.8594 5.04968 14.8555 5.04968 13.6211C5.04968 12.4121 5.83057 11.4434 6.76379 11.4434C7.71924 11.4434 8.48511 12.3945 8.48511 13.6055C8.48511 14.8555 7.69641 15.8594 6.76379 15.8594ZM24.244 15.8594C23.3036 15.8594 22.5149 14.8555 22.5149 13.6055C22.5149 12.3945 23.2808 11.4434 24.244 11.4434C25.1766 11.4434 25.9503 12.4121 25.9503 13.623C25.9503 14.8555 25.1689 15.8594 24.244 15.8594ZM2.54688 25L8.50012 25C8.13611 24.7695 7.85535 24.2539 7.90869 23.7305L2.3573 23.7305C2.20557 23.7305 2.13 23.6621 2.13 23.5C2.13 21.373 4.276 19.3828 6.75598 19.3828C7.71143 19.3828 8.56848 19.6406 9.30383 20.1289C9.54785 19.7793 9.83667 19.4746 10.1609 19.2207C9.18262 18.4922 8.00708 18.1152 6.75598 18.1152C3.57837 18.1152 1 20.7207 1 23.5781C1 24.5293 1.51575 25 2.54688 25ZM28.4604 25C29.4843 25 30 24.5293 30 23.5781C30 20.7207 27.421 18.1152 24.244 18.1152C22.9929 18.1152 21.8246 18.4922 20.8391 19.2207C21.1804 19.4863 21.4606 19.7871 21.704 20.1289C22.4315 19.6406 23.2958 19.3828 24.244 19.3828C26.724 19.3828 28.87 21.373 28.87 23.5C28.87 23.6621 28.8016 23.7305 28.6499 23.7305L23.0985 23.7305C23.144 24.2539 22.8712 24.7695 22.5071 25L28.4604 25ZM10.7373 25L20.2627 25C21.5211 25 22.1208 24.5723 22.1208 23.6289C22.1208 21.3809 19.6102 18.1309 15.5 18.1309C11.382 18.1309 8.87146 21.3809 8.87146 23.6289C8.87146 24.5723 9.47107 25 10.7373 25ZM10.3732 23.7051C10.1764 23.7051 10.093 23.6465 10.093 23.4668C10.093 22.0586 12.0195 19.4277 15.5 19.4277C18.9733 19.4277 20.8997 22.0586 20.8997 23.4648C20.8997 23.6465 20.8236 23.7051 20.6268 23.7051L10.3732 23.7051Z" fill="#23272E" fill-opacity="1.000000" fill-rule="nonzero"/>
	</g>
</svg>
