<svg width="24" height="24" viewBox="0 0 24 24" fill="none" xmlns="http://www.w3.org/2000/svg">
<circle cx="3.40426" cy="3.40426" r="3.40426" transform="matrix(-1 0 0 1 15.6172 5)" stroke="#F1F6FF" stroke-width="1.5"/>
<path d="M6.25537 16.8604C6.25537 16.1282 6.71567 15.475 7.40524 15.2287V15.2287C10.5141 14.1184 13.9115 14.1184 17.0204 15.2287V15.2287C17.71 15.475 18.1703 16.1282 18.1703 16.8604V17.98C18.1703 18.9905 17.2752 19.7668 16.2748 19.6239L15.9412 19.5763C13.4682 19.223 10.9575 19.223 8.48442 19.5763L8.15087 19.6239C7.15044 19.7668 6.25537 18.9905 6.25537 17.98V16.8604Z" stroke="#F1F6FF" stroke-width="1.5"/>
<path d="M17.3194 11.9023C18.7966 11.9023 19.9941 10.7047 19.9941 9.22751C19.9941 7.75027 18.7966 6.55273 17.3194 6.55273" stroke="#F1F6FF" stroke-width="1.5" stroke-linecap="round"/>
<path d="M20.2486 18.0036L20.5106 18.041C21.2967 18.1533 22 17.5434 22 16.7493V15.8697C22 15.2944 21.6383 14.7812 21.0965 14.5877C20.5561 14.3946 20.0045 14.2443 19.4468 14.1367" stroke="#F1F6FF" stroke-width="1.5" stroke-linecap="round"/>
<path d="M6.68063 11.9023C5.2034 11.9023 4.00586 10.7047 4.00586 9.22751C4.00586 7.75027 5.2034 6.55273 6.68063 6.55273" stroke="#F1F6FF" stroke-width="1.5" stroke-linecap="round"/>
<path d="M3.75143 18.0036L3.48935 18.041C2.7033 18.1533 2.00003 17.5434 2.00003 16.7493V15.8697C2.00003 15.2944 2.3617 14.7812 2.9035 14.5877C3.44395 14.3946 3.99549 14.2443 4.55322 14.1367" stroke="#F1F6FF" stroke-width="1.5" stroke-linecap="round"/>
</svg>
