<svg width="24" height="24" viewBox="0 0 24 24" fill="none" xmlns="http://www.w3.org/2000/svg">
<path d="M5.29305 15.7142C5.48074 15.8972 5.73528 16 6.00068 16C6.26608 16 6.52062 15.8972 6.70831 15.7142L11.2984 11.238C11.4887 11.0599 11.7423 10.9604 12.006 10.9604C12.2698 10.9604 12.5234 11.0599 12.7137 11.238L17.3038 15.7142C17.4925 15.892 17.7454 15.9904 18.0078 15.9882C18.2702 15.986 18.5213 15.8833 18.7068 15.7023C18.8924 15.5214 18.9977 15.2766 19 15.0206C19.0022 14.7647 18.9014 14.5182 18.719 14.3341L14.1299 9.85783C13.8511 9.58586 13.5201 9.37013 13.1557 9.22294C12.7914 9.07576 12.4009 9 12.0065 9C11.6122 9 11.2217 9.07576 10.8573 9.22294C10.493 9.37013 10.162 9.58586 9.88315 9.85783L5.29305 14.3341C5.10541 14.5171 5 14.7653 5 15.0241C5 15.283 5.10541 15.5312 5.29305 15.7142Z" fill="#1A1B22"/>
</svg>
