<svg width="1280" height="721" viewBox="0 0 1280 721" fill="none" xmlns="http://www.w3.org/2000/svg">
<g clip-path="url(#clip0_765_67506)">
<rect width="1920" height="1080" transform="translate(-320 -179.998)" fill="#1A1B22"/>
<path d="M1525 15.002C1525 274.023 1315.02 484.002 1056 484.002C1030.91 484.002 1006.28 482.032 982.253 478.237L979.042 483.8C1004.09 487.88 1029.8 490.002 1056 490.002C1318.34 490.002 1531 277.337 1531 15.002C1531 -247.333 1318.34 -459.998 1056 -459.998C793.665 -459.998 581 -247.333 581 15.002C581 241.415 739.411 430.829 951.446 478.458L954.592 473.01C744.32 426.662 587 239.204 587 15.002C587 -244.02 796.978 -453.998 1056 -453.998C1315.02 -453.998 1525 -244.02 1525 15.002Z" fill="white"/>
<path d="M1102.44 205.615L753 810.862L1195.48 1066.33L1560.28 434.468L1143.01 193.557L1140.01 198.753L1552.09 436.664L1193.28 1058.13L761.196 808.666L1107.64 208.615L1102.44 205.615Z" fill="#5A9BFF"/>
</g>
<defs>
<clipPath id="clip0_765_67506">
<rect width="1920" height="1080" fill="white" transform="translate(-320 -179.998)"/>
</clipPath>
</defs>
</svg>
