<svg width="36.000000" height="36.000000" viewBox="0 0 36 36" fill="none" xmlns="http://www.w3.org/2000/svg" xmlns:xlink="http://www.w3.org/1999/xlink">
	<desc>
			Created with Pixso.
	</desc>
	<defs>
		<clipPath id="clip4_15667">
			<rect id="Icon" width="20.000000" height="20.000000" transform="translate(8.000000 8.000000)" fill="white" fill-opacity="0"/>
		</clipPath>
		<clipPath id="clip4_15669">
			<rect id="Component 1" width="36.000000" height="36.000000" fill="white" fill-opacity="0"/>
		</clipPath>
	</defs>
	<rect id="Component 1" width="36.000000" height="36.000000" fill="#FFFFFF" fill-opacity="0"/>
	<g clip-path="url(#clip4_15669)">
		<rect id="Icon" width="20.000000" height="20.000000" transform="translate(8.000000 8.000000)" fill="#FFFFFF" fill-opacity="0"/>
		<g clip-path="url(#clip4_15667)">
			<path id="Vector" d="M13.8301 17.7773L14.6055 13.9082C14.7637 13.125 15.1875 12.4199 15.8066 11.9141C16.4258 11.4082 17.1992 11.1309 17.998 11.1309C18.7988 11.1309 19.5723 11.4082 20.1914 11.9141C20.8105 12.4199 21.2344 13.125 21.3926 13.9082L22.168 17.7773C22.3984 18.9316 22.9668 19.9941 23.7988 20.8281L24.041 21.0684C24.1309 21.1582 24.1953 21.2695 24.2266 21.3926C24.2578 21.5137 24.2559 21.6426 24.2207 21.7637C24.1855 21.8867 24.1191 21.9961 24.0273 22.084C23.9355 22.1699 23.8223 22.2305 23.6992 22.2598L22.6738 22.498C19.5977 23.207 16.4004 23.207 13.3242 22.498L12.2988 22.2598C12.1758 22.2324 12.0625 22.1699 11.9707 22.084C11.8789 21.9961 11.8125 21.8867 11.7773 21.7656C11.7422 21.6426 11.7402 21.5156 11.7715 21.3926C11.8027 21.2695 11.8672 21.1582 11.957 21.0684L12.1992 20.8281C13.0312 19.9941 13.5996 18.9336 13.8301 17.7773ZM11.9922 17.4102L12.7656 13.5391C13.0098 12.332 13.6641 11.2441 14.6172 10.4629C15.5723 9.68164 16.7656 9.25586 17.998 9.25586C19.2324 9.25586 20.4258 9.68164 21.3809 10.4629C22.334 11.2441 22.9883 12.332 23.2305 13.5391L24.0059 17.4102C24.1641 18.2031 24.5547 18.9297 25.125 19.502L25.3672 19.7441C25.6934 20.0703 25.9277 20.4766 26.043 20.9238C26.1582 21.3691 26.1523 21.8398 26.0254 22.2832C25.8984 22.7266 25.6543 23.127 25.3184 23.4453C24.9844 23.7617 24.5703 23.9844 24.1211 24.0879L23.0957 24.3242C22.2188 24.5254 21.332 24.6758 20.4453 24.7715C20.3262 25.332 20.0176 25.8359 19.5723 26.1953C19.1289 26.5566 18.5723 26.7539 18 26.7539C17.4258 26.7539 16.8711 26.5566 16.4258 26.1953C15.9805 25.8359 15.6719 25.332 15.5547 24.7715C14.6621 24.6758 13.7773 24.5254 12.9043 24.3242L11.877 24.0859C11.4277 23.9824 11.0137 23.7598 10.6797 23.4434C10.3457 23.125 10.1016 22.7246 9.97461 22.2812C9.84766 21.8379 9.8418 21.3691 9.95703 20.9238C10.0723 20.4766 10.3047 20.0703 10.6309 19.7441L10.873 19.5C11.4453 18.9277 11.8359 18.1992 11.9922 17.4082L11.9922 17.4102Z" fill="#000000" fill-opacity="0.850980" fill-rule="evenodd"/>
		</g>
	</g>
</svg>
