<svg width="32.000000" height="32.000000" viewBox="0 0 32 32" fill="none" xmlns="http://www.w3.org/2000/svg" xmlns:xlink="http://www.w3.org/1999/xlink">
	<desc>
			Created with Pixso.
	</desc>
	<defs>
		<clipPath id="clip2_3601">
			<rect id="Frame 1010105109" width="32.000000" height="32.000000" fill="white" fill-opacity="0"/>
		</clipPath>
	</defs>
	<g clip-path="url(#clip2_3601)">
		<path id="Vector" d="M27.1624 27.5098C27.0824 27.5098 27.0043 27.4863 26.9379 27.4414C26.8713 27.3965 26.8196 27.334 26.7889 27.2598C26.7584 27.1875 26.7504 27.1055 26.7659 27.0273C26.7815 26.9492 26.8199 26.877 26.8765 26.8203C26.933 26.7637 27.0049 26.7246 27.0833 26.709C27.1617 26.6934 27.2429 26.7012 27.3168 26.7324C27.3906 26.7617 27.4539 26.8145 27.4983 26.8809C27.5427 26.9473 27.5665 27.0254 27.5665 27.1055C27.5665 27.2129 27.5239 27.3145 27.4482 27.3906C27.3724 27.4668 27.2695 27.5098 27.1624 27.5098ZM18.0916 0L5.74304 0C5.5509 0.0351562 5.37708 0.136719 5.25183 0.287109C5.12659 0.435547 5.05786 0.625 5.05762 0.820312L5.05762 1.71094L4.25745 1.71094C4.03638 1.71094 3.82458 1.79883 3.66833 1.95508C3.51208 2.11133 3.42419 2.32422 3.42395 2.54492L3.42395 3.53711L2.33337 3.53711C2.11255 3.53711 1.90076 3.625 1.74451 3.78125C1.58826 3.9375 1.50037 4.14844 1.5 4.36914L1.5 27.8652C1.50037 28.0879 1.58826 28.2988 1.74451 28.4551C1.90063 28.6113 2.11243 28.6992 2.33337 28.6992L17.5168 28.6992C17.9451 29.0703 18.4926 29.2754 19.0591 29.2754L28.1322 29.2754C28.7601 29.2754 29.3623 29.0254 29.8064 28.5801C30.2504 28.1367 30.4999 27.5352 30.5 26.9062L30.5 15.1367C30.4993 14.5098 30.2496 13.9062 29.8057 13.4629C29.3618 13.0195 28.7599 12.7695 28.1322 12.7695L23.7417 12.7695L23.7417 5.76367C23.7422 5.71875 23.7336 5.67383 23.7164 5.63086C23.6993 5.58984 23.674 5.55078 23.6418 5.51758L18.2406 0.0878906C18.1993 0.046875 18.1479 0.015625 18.0916 0ZM27.1624 26.0156C26.9467 26.0156 26.7358 26.0781 26.5565 26.1992C26.3771 26.3184 26.2373 26.4883 26.1548 26.6875C26.0723 26.8867 26.0507 27.1074 26.0928 27.3184C26.1349 27.5293 26.2388 27.7246 26.3914 27.877C26.5439 28.0293 26.7383 28.1328 26.9498 28.1758C27.1614 28.2168 27.3806 28.1953 27.58 28.1133C27.7792 28.0312 27.9495 27.8906 28.0692 27.7109C28.1891 27.5312 28.2529 27.3203 28.2529 27.1055C28.2524 26.8164 28.1375 26.5391 27.933 26.334C27.7285 26.1309 27.4514 26.0156 27.1624 26.0156ZM23.787 27.5098C23.707 27.5098 23.6289 27.4863 23.5624 27.4414C23.4958 27.3984 23.444 27.334 23.4133 27.2598C23.3827 27.1875 23.3746 27.1055 23.3901 27.0273C23.4056 26.9492 23.4441 26.877 23.5006 26.8203C23.5571 26.7637 23.629 26.7246 23.7075 26.709C23.7859 26.6934 23.8672 26.7012 23.941 26.7324C24.0149 26.7617 24.0781 26.8145 24.1226 26.8809C24.167 26.9473 24.1908 27.0254 24.1908 27.1055C24.1908 27.2129 24.1483 27.3145 24.0726 27.3906C23.9968 27.4668 23.8942 27.5098 23.787 27.5098ZM23.787 26.0156C24.0027 26.0156 24.2135 26.0781 24.3928 26.1992C24.5723 26.3184 24.712 26.4883 24.7946 26.6875C24.8771 26.8867 24.8986 27.1074 24.8566 27.3184C24.8145 27.5293 24.7106 27.7246 24.558 27.877C24.4054 28.0293 24.2111 28.1328 23.9995 28.1758C23.788 28.2168 23.5687 28.1953 23.3694 28.1133C23.1702 28.0312 22.9999 27.8906 22.8801 27.7109C22.7603 27.5312 22.6964 27.3203 22.6964 27.1055C22.6968 26.8164 22.8118 26.5391 23.0162 26.334C23.2207 26.1309 23.4979 26.0156 23.787 26.0156ZM20.4126 27.5098C20.3326 27.5098 20.2544 27.4863 20.188 27.4414C20.1215 27.3984 20.0696 27.334 20.0389 27.2598C20.0083 27.1875 20.0002 27.1055 20.0157 27.0273C20.0312 26.9492 20.0697 26.877 20.1262 26.8203C20.1826 26.7637 20.2546 26.7246 20.333 26.709C20.4115 26.6934 20.4927 26.7012 20.5667 26.7324C20.6405 26.7617 20.7036 26.8145 20.7482 26.8809C20.7926 26.9473 20.8164 27.0254 20.8164 27.1055C20.8164 27.2129 20.7738 27.3164 20.6979 27.3906C20.6221 27.4668 20.5192 27.5098 20.4119 27.5098L20.4126 27.5098ZM20.4126 26.0156C20.6283 26.0156 20.8391 26.0781 21.0186 26.1992C21.1979 26.3184 21.3378 26.4883 21.4203 26.6875C21.5029 26.8867 21.5245 27.1074 21.4824 27.3184C21.4404 27.5293 21.3365 27.7246 21.184 27.877C21.0315 28.0293 20.8372 28.1328 20.6255 28.1758C20.4139 28.2168 20.1947 28.1953 19.9954 28.1133C19.7961 28.0312 19.6259 27.8906 19.506 27.7109C19.3862 27.5312 19.3223 27.3203 19.3224 27.1055C19.3229 26.8164 19.4379 26.5391 19.6422 26.3359C19.8466 26.1309 20.1235 26.0156 20.4126 26.0156ZM27.1624 24.0859C27.0824 24.0859 27.0043 24.0625 26.9377 24.0176C26.8713 23.9727 26.8196 23.9102 26.7889 23.8359C26.7583 23.7617 26.7504 23.6816 26.766 23.6035C26.7815 23.5234 26.8201 23.4531 26.8766 23.3965C26.9331 23.3398 27.0051 23.3008 27.0835 23.2852C27.1619 23.2695 27.2432 23.2773 27.317 23.3086C27.3909 23.3379 27.454 23.3906 27.4984 23.457C27.5428 23.5234 27.5665 23.6016 27.5665 23.6816C27.5664 23.7891 27.5238 23.8906 27.4481 23.9668C27.3723 24.043 27.2695 24.0859 27.1624 24.0859ZM27.1624 22.5918C27.3781 22.5918 27.5889 22.6543 27.7682 22.7754C27.9474 22.8945 28.0872 23.0645 28.1697 23.2637C28.2521 23.4629 28.2737 23.6836 28.2316 23.8945C28.1895 24.1055 28.0856 24.3008 27.933 24.4531C27.7805 24.6055 27.5862 24.709 27.3746 24.752C27.1631 24.793 26.9438 24.7715 26.7446 24.6895C26.5454 24.6055 26.3751 24.4668 26.2552 24.2871C26.1355 24.1074 26.0715 23.8965 26.0715 23.6816C26.0719 23.3926 26.1869 23.1152 26.3914 22.9102C26.5959 22.707 26.8732 22.5918 27.1624 22.5918ZM23.787 24.0859C23.707 24.0859 23.6288 24.0625 23.5624 24.0176C23.4958 23.9727 23.444 23.9102 23.4133 23.8359C23.3827 23.7617 23.3746 23.6816 23.3901 23.6035C23.4058 23.5234 23.4442 23.4531 23.5007 23.3965C23.5573 23.3398 23.6293 23.3008 23.7076 23.2852C23.7861 23.2695 23.8673 23.2773 23.9413 23.3086C24.0151 23.3379 24.0782 23.3906 24.1227 23.457C24.1671 23.5234 24.1908 23.6016 24.1908 23.6816C24.1908 23.7891 24.1482 23.8906 24.0725 23.9668C23.9967 24.043 23.894 24.0859 23.787 24.0859ZM23.787 22.5918C24.0027 22.5918 24.2135 22.6543 24.3928 22.7754C24.5721 22.8945 24.7119 23.0645 24.7944 23.2637C24.8771 23.4629 24.8986 23.6836 24.8566 23.8945C24.8145 24.1055 24.7106 24.3008 24.5581 24.4531C24.4055 24.6055 24.2113 24.709 23.9998 24.752C23.7882 24.793 23.5688 24.7715 23.3696 24.6895C23.1704 24.6055 23 24.4668 22.8802 24.2871C22.7604 24.1074 22.6964 23.8965 22.6964 23.6816C22.6968 23.3926 22.8118 23.1152 23.0162 22.9102C23.2207 22.707 23.4978 22.5918 23.787 22.5918ZM20.4126 24.0859C20.3326 24.0859 20.2544 24.0625 20.1879 24.0176C20.1213 23.9727 20.0696 23.9102 20.0389 23.8359C20.0083 23.7617 20.0002 23.6816 20.0157 23.6035C20.0314 23.5234 20.0698 23.4531 20.1263 23.3965C20.1829 23.3398 20.2549 23.3008 20.3333 23.2852C20.4116 23.2695 20.4929 23.2773 20.5668 23.3086C20.6407 23.3379 20.7039 23.3906 20.7483 23.457C20.7927 23.5234 20.8164 23.6016 20.8164 23.6816C20.8163 23.7891 20.7737 23.8906 20.6979 23.9668C20.6219 24.043 20.5192 24.0859 20.4119 24.0859L20.4126 24.0859ZM20.4126 22.5918C20.6283 22.5918 20.8391 22.6543 21.0186 22.7754C21.1979 22.8945 21.3376 23.0645 21.4203 23.2637C21.5029 23.4629 21.5245 23.6816 21.4825 23.8945C21.4404 24.1055 21.3365 24.3008 21.1841 24.4531C21.0316 24.6055 20.8373 24.709 20.6257 24.752C20.4142 24.793 20.1949 24.7715 19.9956 24.6895C19.7964 24.6074 19.626 24.4668 19.5061 24.2871C19.3864 24.1074 19.3224 23.8965 19.3224 23.6816C19.3229 23.3926 19.4379 23.1152 19.6422 22.9102C19.8466 22.707 20.1235 22.5918 20.4126 22.5918ZM27.1624 20.6621C27.0824 20.6621 27.0043 20.6387 26.9377 20.5938C26.8713 20.5488 26.8195 20.4863 26.7889 20.4121C26.7583 20.3379 26.7504 20.2559 26.766 20.1777C26.7816 20.0996 26.8201 20.0273 26.8767 19.9707C26.9332 19.9141 27.0052 19.877 27.0837 19.8613C27.1621 19.8457 27.2434 19.8535 27.3173 19.8848C27.3911 19.9141 27.4542 19.9668 27.4985 20.0332C27.543 20.0996 27.5667 20.1777 27.5665 20.2578C27.5664 20.3652 27.5237 20.4668 27.448 20.543C27.3722 20.6191 27.2695 20.6621 27.1624 20.6621ZM27.1624 19.168C27.3781 19.168 27.5889 19.2305 27.7682 19.3516C27.9474 19.4707 28.0872 19.6406 28.1697 19.8398C28.2521 20.0391 28.2737 20.2598 28.2316 20.4707C28.1895 20.6816 28.0856 20.877 27.933 21.0293C27.7805 21.1816 27.5862 21.2852 27.3746 21.3281C27.1631 21.3691 26.9438 21.3477 26.7446 21.2656C26.5454 21.1816 26.3751 21.043 26.2552 20.8633C26.1355 20.6836 26.0715 20.4727 26.0715 20.2578C26.0718 19.9688 26.1868 19.6914 26.3914 19.4863C26.5958 19.2812 26.8732 19.168 27.1624 19.168ZM23.787 20.6621C23.707 20.6621 23.6288 20.6387 23.5623 20.5938C23.4957 20.5488 23.444 20.4863 23.4133 20.4121C23.3827 20.3379 23.3746 20.2578 23.3903 20.1777C23.4058 20.0996 23.4443 20.0273 23.5009 19.9707C23.5574 19.9141 23.6294 19.877 23.7079 19.8613C23.7863 19.8457 23.8676 19.8535 23.9414 19.8848C24.0154 19.9141 24.0785 19.9668 24.1228 20.0332C24.1672 20.0996 24.1909 20.1777 24.1908 20.2578C24.1907 20.3652 24.1481 20.4668 24.0724 20.543C23.9967 20.6191 23.894 20.6621 23.787 20.6621ZM23.787 19.168C24.0027 19.168 24.2135 19.2305 24.3928 19.3516C24.5721 19.4707 24.7119 19.6406 24.7944 19.8398C24.8771 20.0391 24.8986 20.2578 24.8566 20.4707C24.8145 20.6816 24.7106 20.877 24.5581 21.0293C24.4055 21.1816 24.2113 21.2852 23.9998 21.3262C23.7882 21.3691 23.5688 21.3477 23.3696 21.2656C23.1704 21.1816 23 21.043 22.8802 20.8633C22.7604 20.6836 22.6964 20.4727 22.6964 20.2578C22.6967 19.9688 22.8116 19.6914 23.0161 19.4863C23.2206 19.2832 23.4978 19.168 23.787 19.168ZM14.3237 21.543C14.3226 21.6328 14.2859 21.7188 14.2217 21.7832C14.1573 21.8457 14.0707 21.8809 13.9803 21.8809L13.9764 21.8809L10.276 21.8398C10.231 21.8398 10.1864 21.8301 10.145 21.8125C10.1036 21.7949 10.066 21.7695 10.0345 21.7363C10.0032 21.7051 9.97827 21.666 9.96155 21.625C9.94482 21.582 9.93652 21.5391 9.93701 21.4922C9.9375 21.4473 9.9469 21.4043 9.96472 21.3613C9.98242 21.3203 10.0082 21.2832 10.0404 21.252C10.0726 21.2207 10.1107 21.1953 10.1525 21.1777C10.1943 21.1621 10.239 21.1543 10.2841 21.1543L13.9843 21.1953C14.0293 21.1953 14.0739 21.2051 14.1154 21.2227C14.1569 21.2402 14.1943 21.2656 14.226 21.2988C14.2574 21.3301 14.2822 21.3691 14.2991 21.4102C14.3158 21.4531 14.3242 21.498 14.3237 21.543ZM14.3237 19.791C14.3226 19.8828 14.286 19.9688 14.2218 20.0312C14.1575 20.0957 14.0708 20.1309 13.9803 20.1309L13.9764 20.1309L10.276 20.0898C10.1868 20.0859 10.1023 20.0488 10.0405 19.9844C9.97876 19.9199 9.94446 19.834 9.94495 19.7441C9.94543 19.6562 9.98071 19.5703 10.0432 19.5059C10.1057 19.4414 10.1907 19.4062 10.2799 19.4023L10.2841 19.4023L13.9843 19.4453C14.0293 19.4453 14.0739 19.4551 14.1154 19.4727C14.1569 19.4902 14.1943 19.5156 14.226 19.5488C14.2574 19.5801 14.2822 19.6191 14.2991 19.6602C14.3158 19.7012 14.3242 19.7461 14.3237 19.791ZM9.98181 4.79492L12.3434 8.04883C12.3751 8.09375 12.4167 8.12891 12.4651 8.1543C12.5133 8.17969 12.5668 8.19141 12.621 8.19141L16.6456 8.19141C16.5902 8.85156 16.3733 9.48828 16.0139 10.0449C15.6544 10.6016 15.1637 11.0605 14.5848 11.3828C14.006 11.7051 13.3567 11.8809 12.6943 11.8926C12.0319 11.9043 11.3767 11.7539 10.7864 11.4531C10.1962 11.1523 9.68896 10.7109 9.30945 10.168C8.93005 9.62305 8.68994 8.99609 8.61047 8.33789C8.53101 7.67969 8.6145 7.01367 8.85364 6.39453C9.09277 5.77734 9.48022 5.22852 9.98181 4.79492ZM14.5736 4.31445L12.6096 7.25L10.5363 4.39062C11.1432 4.02539 11.8359 3.82422 12.5448 3.81055C13.2537 3.79883 13.9535 3.97266 14.5736 4.31445L14.5736 4.31445ZM16.6456 7.50586L13.2638 7.50586L15.1434 4.69727C15.5713 5.03906 15.925 5.46484 16.1833 5.94727C16.4415 6.43164 16.5989 6.96094 16.6456 7.50586ZM12.621 12.5762C11.6862 12.5762 10.7722 12.2988 9.99475 11.7793C9.21741 11.2617 8.61145 10.5234 8.25366 9.6582C7.89587 8.79492 7.80225 7.84375 7.98462 6.92773C8.16699 6.00977 8.61719 5.16797 9.27832 4.50781C9.93933 3.8457 10.7816 3.39648 11.6986 3.21289C12.6156 3.03125 13.566 3.125 14.4298 3.48242C15.2935 3.83984 16.0317 4.44727 16.5511 5.22461C17.0706 6.00195 17.3477 6.91602 17.3477 7.84961C17.3462 9.10352 16.8477 10.3047 15.9617 11.1914C15.0756 12.0762 13.8741 12.5762 12.621 12.5762ZM14.3237 18.041C14.3226 18.1309 14.2859 18.2168 14.2217 18.2812C14.1573 18.3438 14.0707 18.3809 13.9803 18.3809L13.9764 18.3809L10.276 18.3379C10.1849 18.3379 10.0978 18.3008 10.0338 18.2363C9.96973 18.1719 9.93408 18.084 9.93457 17.9941C9.93506 17.9023 9.9718 17.8145 10.0365 17.752C10.1013 17.6875 10.1888 17.6523 10.2799 17.6523L10.2841 17.6523L13.9843 17.6934C14.0293 17.6934 14.0739 17.7031 14.1154 17.7207C14.1567 17.7383 14.1943 17.7656 14.2258 17.7969C14.2574 17.8301 14.2822 17.8672 14.2991 17.9082C14.3158 17.9512 14.3242 17.9961 14.3237 18.041ZM20.4126 20.6621C20.3325 20.6621 20.2544 20.6387 20.1879 20.5938C20.1213 20.5488 20.0695 20.4863 20.0388 20.4121C20.0082 20.3379 20.0002 20.2578 20.0157 20.1777C20.0314 20.0996 20.0698 20.0273 20.1265 19.9707C20.183 19.9141 20.255 19.877 20.3335 19.8613C20.4119 19.8457 20.4932 19.8535 20.567 19.8848C20.6409 19.9141 20.704 19.9668 20.7484 20.0332C20.7928 20.0996 20.8165 20.1777 20.8164 20.2578C20.8163 20.3652 20.7736 20.4668 20.6978 20.543C20.6218 20.6191 20.519 20.6621 20.4119 20.6621L20.4126 20.6621ZM20.4126 19.168C20.6283 19.166 20.8391 19.2305 21.0186 19.3516C21.1979 19.4707 21.3376 19.6406 21.4203 19.8398C21.5029 20.0391 21.5245 20.2578 21.4825 20.4707C21.4404 20.6816 21.3365 20.877 21.1841 21.0293C21.0316 21.1816 20.8373 21.2852 20.6257 21.3262C20.4142 21.3691 20.1949 21.3477 19.9956 21.2656C19.7964 21.1816 19.626 21.043 19.5061 20.8633C19.3864 20.6836 19.3224 20.4727 19.3224 20.2578C19.3228 19.9688 19.4377 19.6914 19.6421 19.4863C19.8464 19.2832 20.1235 19.168 20.4126 19.168ZM26.8695 16.5586L20.3433 16.5586L20.3433 15.1797L26.8695 15.1797L26.8695 16.5586ZM26.918 14.4922C27.0873 14.4922 27.2496 14.5586 27.3694 14.6777C27.489 14.7988 27.5564 14.9609 27.5564 15.1289L27.5564 16.6055C27.5563 16.7754 27.489 16.9375 27.3693 17.0566C27.2495 17.1758 27.0873 17.2441 26.918 17.2441L20.2958 17.2441C20.1265 17.2441 19.9641 17.1758 19.8444 17.0566C19.7247 16.9375 19.6573 16.7754 19.6572 16.6055L19.6572 15.1309C19.6573 14.9609 19.7246 14.7988 19.8444 14.6797C19.964 14.5605 20.1265 14.4922 20.2958 14.4922L26.918 14.4922ZM29.8143 17.7637L17.3795 17.7637L17.3795 15.1367C17.38 14.6914 17.5571 14.2637 17.8719 13.9492C18.1868 13.6348 18.6136 13.457 19.0591 13.4551L28.1322 13.4551C28.5779 13.4551 29.0052 13.6328 29.3206 13.9492C29.6357 14.2637 29.8131 14.6914 29.8137 15.1367L29.8137 17.7656L29.8143 17.7637ZM28.1322 28.5898C28.5782 28.5898 29.0059 28.4121 29.3212 28.0957C29.6365 27.7812 29.8136 27.3535 29.8137 26.9062L29.8137 18.4512L17.3795 18.4512L17.3795 26.9062C17.3796 27.3516 17.5565 27.7793 17.8713 28.0957C18.1862 28.4102 18.6134 28.5879 19.0591 28.5898L28.1322 28.5898ZM2.18665 27.8672L2.18665 4.37109C2.18713 4.33203 2.20276 4.29492 2.23022 4.26758C2.25757 4.24023 2.29468 4.22461 2.33337 4.22461L3.42395 4.22461L3.42395 26.043C3.42407 26.2637 3.51196 26.4746 3.66821 26.6309C3.82446 26.7871 4.03638 26.875 4.25745 26.875L16.6931 26.875L16.6931 26.9082C16.6926 27.2949 16.7871 27.6738 16.9681 28.0156L2.33337 28.0156C2.29468 28.0137 2.25757 27.998 2.23022 27.9707C2.20276 27.9434 2.18713 27.9062 2.18665 27.8672ZM4.11035 2.54492C4.11084 2.50586 4.12646 2.46875 4.15393 2.44141C4.1814 2.41406 4.21851 2.39844 4.25745 2.39844L5.05762 2.39844L5.05762 24.3164C5.05786 24.5391 5.14587 24.75 5.30225 24.9062C5.45862 25.0625 5.67065 25.1504 5.89172 25.1504L16.6931 25.1504L16.6931 26.1914L4.25745 26.1914C4.21851 26.1895 4.18152 26.1738 4.15405 26.1465C4.12659 26.1191 4.11084 26.082 4.11035 26.043L4.11035 2.54688L4.11035 2.54492ZM5.74426 0.820312C5.74475 0.78125 5.76038 0.744141 5.78796 0.716797C5.81555 0.689453 5.85278 0.673828 5.89172 0.671875L17.663 0.671875L17.7417 3.5918C17.7485 4.25781 18.0167 4.89453 18.4885 5.36328C18.9603 5.83398 19.5979 6.09961 20.2638 6.10352L23.0554 6.10352L23.0554 12.7695L19.0591 12.7695C18.4315 12.7695 17.8298 13.0195 17.3861 13.4629C16.9425 13.9082 16.6929 14.5098 16.6921 15.1367L16.6921 24.4648L5.89172 24.4648C5.85278 24.4648 5.81555 24.4492 5.78796 24.4219C5.76038 24.3945 5.74475 24.3574 5.74426 24.3184L5.74426 0.820312ZM22.5737 5.41797L20.2632 5.41797C19.7765 5.41211 19.3113 5.2168 18.968 4.87109C18.6246 4.52539 18.4308 4.06055 18.4281 3.57227L18.3629 1.18555L22.5737 5.41797Z" fill="#FFFFFF" fill-opacity="1.000000" fill-rule="evenodd"/>
	</g>
</svg>
