<svg width="25" height="24" viewBox="0 0 25 24" fill="none" xmlns="http://www.w3.org/2000/svg">
<path d="M9.78619 15.9198L5.86719 12.0008C5.67966 11.8133 5.42535 11.708 5.16019 11.708C4.89502 11.708 4.64071 11.8133 4.45319 12.0008C4.26572 12.1883 4.1604 12.4426 4.1604 12.7078C4.1604 12.973 4.26572 13.2273 4.45319 13.4148L8.37219 17.3338C8.55791 17.5196 8.77843 17.667 9.02113 17.7675C9.26384 17.8681 9.52397 17.9199 9.78669 17.9199C10.0494 17.9199 10.3095 17.8681 10.5522 17.7675C10.7949 17.667 11.0155 17.5196 11.2012 17.3338L20.4532 8.08179C20.6407 7.89426 20.746 7.63995 20.746 7.37479C20.746 7.10962 20.6407 6.85531 20.4532 6.66779C20.2657 6.48032 20.0114 6.375 19.7462 6.375C19.481 6.375 19.2267 6.48032 19.0392 6.66779L9.78619 15.9198Z" fill="#1A1B22"/>
</svg>
