<svg width="16" height="17" viewBox="0 0 16 17" fill="none" xmlns="http://www.w3.org/2000/svg">
<path d="M14.5327 7.76118C14.5908 7.81923 14.6369 7.88816 14.6684 7.96403C14.6998 8.0399 14.716 8.12123 14.716 8.20337C14.716 8.2855 14.6998 8.36683 14.6684 8.44271C14.6369 8.51858 14.5908 8.58751 14.5327 8.64556L8.12257 15.0518C7.30195 15.8723 6.189 16.3332 5.02854 16.3332C3.86809 16.3331 2.75519 15.872 1.93468 15.0514C1.11417 14.2308 0.653247 13.1178 0.65332 11.9574C0.653394 10.7969 1.11445 9.68404 1.93507 8.86352L9.68976 0.994774C10.2756 0.408293 11.0705 0.078565 11.8994 0.0781254C12.7284 0.0776859 13.5236 0.406571 14.1101 0.99243C14.6966 1.57829 15.0263 2.37313 15.0267 3.2021C15.0272 4.03107 14.6983 4.82626 14.1124 5.41274L6.35616 13.2815C6.00392 13.6337 5.52618 13.8316 5.02804 13.8316C4.52989 13.8316 4.05215 13.6337 3.69991 13.2815C3.34767 12.9293 3.14979 12.4515 3.14979 11.9534C3.14979 11.4552 3.34767 10.9775 3.69991 10.6252L10.2077 4.0143C10.2647 3.95349 10.3333 3.90469 10.4095 3.87079C10.4856 3.83688 10.5678 3.81855 10.6511 3.81687C10.7345 3.8152 10.8173 3.83021 10.8948 3.86102C10.9722 3.89183 11.0427 3.93783 11.1021 3.9963C11.1615 4.05477 11.2086 4.12454 11.2407 4.20149C11.2727 4.27844 11.2891 4.36102 11.2887 4.44438C11.2884 4.52773 11.2713 4.61018 11.2386 4.68686C11.2059 4.76353 11.1583 4.8329 11.0984 4.89087L4.58976 11.5088C4.53148 11.5666 4.48517 11.6354 4.45345 11.7111C4.42174 11.7868 4.40525 11.868 4.40492 11.9501C4.40459 12.0322 4.42044 12.1135 4.45155 12.1895C4.48266 12.2655 4.52843 12.3345 4.58624 12.3928C4.64405 12.4511 4.71278 12.4974 4.78849 12.5291C4.8642 12.5608 4.94542 12.5773 5.02751 12.5777C5.10959 12.578 5.19094 12.5621 5.2669 12.531C5.34286 12.4999 5.41195 12.4541 5.47023 12.3963L13.2257 4.53149C13.5779 4.17998 13.7761 3.70293 13.7766 3.2053C13.7771 2.70767 13.5799 2.23022 13.2284 1.87798C12.8769 1.52574 12.3999 1.32756 11.9022 1.32705C11.4046 1.32654 10.9272 1.52373 10.5749 1.87524L2.82179 9.74087C2.53134 10.0309 2.30086 10.3752 2.14349 10.7543C1.98612 11.1333 1.90496 11.5397 1.90463 11.9501C1.90431 12.3605 1.98482 12.767 2.14159 13.1463C2.29835 13.5256 2.52829 13.8703 2.81827 14.1608C3.10826 14.4512 3.45261 14.6817 3.83167 14.8391C4.21073 14.9965 4.61708 15.0776 5.02751 15.0779C5.43793 15.0783 5.84441 14.9978 6.22372 14.841C6.60303 14.6842 6.94775 14.4543 7.23819 14.1643L13.6491 7.75806C13.7667 7.64135 13.9259 7.57612 14.0916 7.5767C14.2573 7.57729 14.4159 7.64364 14.5327 7.76118Z" fill="#23272E"/>
</svg>
