<svg width="25" height="25" viewBox="0 0 25 25" fill="none" xmlns="http://www.w3.org/2000/svg">
<path d="M16.0393 8.6514L10.9521 13.7505L8.9955 11.7939C8.8892 11.6697 8.75838 11.5689 8.61126 11.4977C8.46414 11.4265 8.30389 11.3865 8.14058 11.3802C7.97727 11.3739 7.81442 11.4014 7.66225 11.4611C7.51008 11.5207 7.37187 11.6111 7.2563 11.7267C7.14074 11.8422 7.05031 11.9804 6.99069 12.1326C6.93108 12.2848 6.90356 12.4476 6.90987 12.611C6.91617 12.7743 6.95617 12.9345 7.02735 13.0816C7.09853 13.2287 7.19935 13.3596 7.32348 13.4659L10.1102 16.2644C10.221 16.3743 10.3524 16.4613 10.4969 16.5203C10.6414 16.5793 10.7961 16.6092 10.9521 16.6083C11.2632 16.607 11.5613 16.4835 11.7822 16.2644L17.7114 10.3353C17.8225 10.225 17.9107 10.0939 17.9709 9.94938C18.0311 9.80488 18.0621 9.64988 18.0621 9.49334C18.0621 9.3368 18.0311 9.1818 17.9709 9.0373C17.9107 8.89279 17.8225 8.76164 17.7114 8.6514C17.4892 8.43054 17.1886 8.30657 16.8753 8.30657C16.5621 8.30657 16.2615 8.43054 16.0393 8.6514ZM12.8139 0.599609C10.4685 0.599609 8.17584 1.29509 6.22576 2.59809C4.27567 3.9011 2.75576 5.75312 1.85823 7.91994C0.960704 10.0868 0.72587 12.4711 1.18343 14.7714C1.64098 17.0716 2.77038 19.1846 4.42879 20.843C6.0872 22.5014 8.20015 23.6308 10.5004 24.0884C12.8007 24.5459 15.185 24.3111 17.3519 23.4136C19.5187 22.516 21.3707 20.9961 22.6737 19.046C23.9767 17.096 24.6722 14.8033 24.6722 12.4579C24.6722 10.9007 24.3655 9.35865 23.7695 7.91994C23.1736 6.48122 22.3001 5.17397 21.199 4.07283C20.0978 2.97168 18.7906 2.0982 17.3519 1.50227C15.9131 0.906334 14.3711 0.599609 12.8139 0.599609ZM12.8139 21.9446C10.9376 21.9446 9.10345 21.3882 7.54338 20.3458C5.98331 19.3034 4.76738 17.8218 4.04936 16.0883C3.33134 14.3548 3.14347 12.4474 3.50952 10.6072C3.87556 8.76694 4.77908 7.07658 6.10581 5.74985C7.43254 4.42311 9.1229 3.5196 10.9631 3.15355C12.8034 2.78751 14.7108 2.97538 16.4443 3.6934C18.1777 4.41142 19.6593 5.62735 20.7017 7.18742C21.7441 8.74749 22.3005 10.5816 22.3005 12.4579C22.3005 14.9739 21.301 17.3869 19.522 19.166C17.7429 20.9451 15.3299 21.9446 12.8139 21.9446Z" fill="#797981"/>
</svg>
