<svg width="24" height="24" viewBox="0 0 24 24" fill="none" xmlns="http://www.w3.org/2000/svg">
<path d="M14.7414 8.06351L9.80902 13.1626L7.91194 11.206C7.80887 11.0818 7.68203 10.981 7.53939 10.9098C7.39675 10.8387 7.24138 10.7987 7.08304 10.7923C6.9247 10.786 6.7668 10.8136 6.61926 10.8732C6.47172 10.9328 6.33772 11.0232 6.22568 11.1388C6.11363 11.2543 6.02595 11.3926 5.96815 11.5447C5.91035 11.6969 5.88367 11.8597 5.88978 12.0231C5.8959 12.1864 5.93468 12.3466 6.00369 12.4937C6.0727 12.6409 6.17045 12.7717 6.29081 12.878L8.9927 15.6765C9.10013 15.7864 9.22754 15.8734 9.36762 15.9324C9.5077 15.9914 9.6577 16.0213 9.80902 16.0204C10.1106 16.0191 10.3997 15.8956 10.6138 15.6765L16.3625 9.74739C16.4703 9.63715 16.5558 9.506 16.6142 9.36149C16.6726 9.21699 16.7026 9.06199 16.7026 8.90545C16.7026 8.74891 16.6726 8.59391 16.6142 8.44941C16.5558 8.3049 16.4703 8.17375 16.3625 8.06351C16.1471 7.84265 15.8557 7.71868 15.552 7.71868C15.2482 7.71868 14.9568 7.84265 14.7414 8.06351ZM11.6141 0.0117188C9.34014 0.0117187 7.11723 0.707196 5.22649 2.0102C3.33575 3.31321 1.8621 5.16523 0.991892 7.33205C0.121681 9.49887 -0.106006 11.8832 0.337624 14.1835C0.781254 16.4838 1.87627 18.5967 3.48422 20.2551C5.09216 21.9135 7.1408 23.0429 9.37108 23.5005C11.6014 23.958 13.9131 23.7232 16.014 22.8257C18.1148 21.9281 19.9105 20.4082 21.1738 18.4581C22.4372 16.5081 23.1115 14.2154 23.1115 11.87C23.1115 10.3128 22.8141 8.77076 22.2363 7.33205C21.6585 5.89333 20.8116 4.58608 19.744 3.48494C18.6764 2.38379 17.4089 1.51031 16.014 0.914379C14.619 0.318443 13.124 0.0117188 11.6141 0.0117188ZM11.6141 21.3567C9.79493 21.3567 8.01661 20.8003 6.50401 19.7579C4.99142 18.7155 3.8125 17.2339 3.11634 15.5004C2.42017 13.7669 2.23802 11.8595 2.59292 10.0193C2.94782 8.17904 3.82384 6.48869 5.11019 5.16195C6.39655 3.83522 8.03546 2.93171 9.81968 2.56566C11.6039 2.19962 13.4533 2.38749 15.134 3.10551C16.8147 3.82353 18.2512 5.03946 19.2619 6.59953C20.2726 8.1596 20.812 9.99374 20.812 11.87C20.812 14.386 19.843 16.799 18.118 18.5781C16.3931 20.3572 14.0535 21.3567 11.6141 21.3567Z" fill="#87CC9E"/>
</svg>
