<svg width="25" height="25" viewBox="0 0 25 25" fill="none" xmlns="http://www.w3.org/2000/svg">
<path d="M15.9309 8.6514L10.8437 13.7505L8.8871 11.7939C8.7808 11.6697 8.64998 11.5689 8.50286 11.4977C8.35574 11.4265 8.1955 11.3865 8.03218 11.3802C7.86887 11.3739 7.70602 11.4014 7.55385 11.4611C7.40168 11.5207 7.26347 11.6111 7.14791 11.7267C7.03234 11.8422 6.94191 11.9804 6.8823 12.1326C6.82268 12.2848 6.79516 12.4476 6.80147 12.611C6.80778 12.7743 6.84777 12.9345 6.91895 13.0816C6.99013 13.2287 7.09095 13.3596 7.21508 13.4659L10.0018 16.2644C10.1126 16.3743 10.244 16.4613 10.3885 16.5203C10.533 16.5793 10.6877 16.6092 10.8437 16.6083C11.1548 16.607 11.4529 16.4835 11.6738 16.2644L17.603 10.3353C17.7141 10.225 17.8023 10.0939 17.8625 9.94938C17.9227 9.80488 17.9537 9.64988 17.9537 9.49334C17.9537 9.3368 17.9227 9.1818 17.8625 9.0373C17.8023 8.89279 17.7141 8.76164 17.603 8.6514C17.3808 8.43054 17.0802 8.30657 16.767 8.30657C16.4537 8.30657 16.1531 8.43054 15.9309 8.6514ZM12.7055 0.599609C10.3601 0.599609 8.06745 1.29509 6.11736 2.59809C4.16727 3.9011 2.64736 5.75312 1.74983 7.91994C0.852306 10.0868 0.617472 12.4711 1.07503 14.7714C1.53258 17.0716 2.66198 19.1846 4.32039 20.843C5.97881 22.5014 8.09175 23.6308 10.392 24.0884C12.6923 24.5459 15.0766 24.3111 17.2435 23.4136C19.4103 22.516 21.2623 20.9961 22.5653 19.046C23.8683 17.096 24.5638 14.8033 24.5638 12.4579C24.5638 10.9007 24.2571 9.35865 23.6611 7.91994C23.0652 6.48122 22.1917 5.17397 21.0906 4.07283C19.9894 2.97168 18.6822 2.0982 17.2435 1.50227C15.8047 0.906334 14.2627 0.599609 12.7055 0.599609ZM12.7055 21.9446C10.8292 21.9446 8.99505 21.3882 7.43498 20.3458C5.87491 19.3034 4.65898 17.8218 3.94096 16.0883C3.22294 14.3548 3.03507 12.4474 3.40112 10.6072C3.76716 8.76694 4.67068 7.07658 5.99741 5.74985C7.32414 4.42311 9.0145 3.5196 10.8547 3.15355C12.695 2.78751 14.6024 2.97538 16.3359 3.6934C18.0693 4.41142 19.5509 5.62735 20.5933 7.18742C21.6357 8.74749 22.1921 10.5816 22.1921 12.4579C22.1921 14.9739 21.1926 17.3869 19.4136 19.166C17.6345 20.9451 15.2215 21.9446 12.7055 21.9446Z" fill="#FFB55B"/>
</svg>
