<svg width="32.000000" height="32.000000" viewBox="0 0 32 32" fill="none" xmlns="http://www.w3.org/2000/svg" xmlns:xlink="http://www.w3.org/1999/xlink">
	<desc>
			Created with Pixso.
	</desc>
	<defs>
		<clipPath id="clip2_3576">
			<rect id="Frame 1010105109" width="32.000000" height="32.000000" fill="white" fill-opacity="0"/>
		</clipPath>
	</defs>
	<g clip-path="url(#clip2_3576)">
		<path id="Vector" d="M23.4617 20.2832L19.5809 18.1934L19.4722 18.0859L22.681 18.0859C23.6313 18.0859 24.4045 17.3125 24.4045 16.3613L24.4045 7.16992C24.4045 6.2207 23.6313 5.44727 22.681 5.44727L21.5321 5.44727C21.5321 4.51367 20.7878 3.75391 19.8624 3.72461L8.98352 2.00781C8.67017 1.95703 8.37585 2.17188 8.32642 2.48438C8.27698 2.79883 8.49084 3.0918 8.80432 3.14258L18.2869 4.63867C18.1584 4.88086 18.0853 5.1543 18.0853 5.44727L7.17041 5.44727C6.22021 5.44727 5.44702 6.2207 5.44702 7.16992L5.44702 16.3613C5.44702 17.3125 6.22021 18.0859 7.17041 18.0859L10.9537 18.0859L10.845 18.1934L6.96436 20.2832C4.61108 21.5508 3.14917 23.998 3.14917 26.6719L3.14917 29C3.14917 29.3164 3.40637 29.5742 3.72363 29.5742C4.36768 29.5742 26.0216 29.5742 26.7024 29.5742C27.0195 29.5742 27.2769 29.3164 27.2769 29L27.2769 26.6719C27.2769 23.998 25.8149 21.5508 23.4617 20.2832ZM18.6294 18.8672L18.1904 22.3789L16.0712 21.3184L18.1587 18.3965L18.6294 18.8672ZM15.213 20.543L13.4569 18.0859L16.969 18.0859L15.213 20.543ZM12.2673 18.3965L14.3547 21.3184L12.2355 22.3789L11.7966 18.8672L12.2673 18.3965ZM19.8099 4.87305C20.1261 4.87305 20.3832 5.13086 20.3832 5.44727L19.2343 5.44727C19.2343 5.12109 19.507 4.86719 19.8099 4.87305ZM6.59595 16.3613L6.59595 7.16992C6.59595 6.85352 6.85364 6.5957 7.17041 6.5957C8.16125 6.5957 21.9347 6.5957 22.681 6.5957C22.9978 6.5957 23.2555 6.85352 23.2555 7.16992L23.2555 16.3613C23.2555 16.6777 22.9978 16.9355 22.681 16.9355L7.17041 16.9355C6.85364 16.9355 6.59595 16.6777 6.59595 16.3613ZM26.1279 28.4258L23.2555 28.4258L23.2555 25.5527C23.2555 25.2363 22.9983 24.9785 22.681 24.9785C22.3639 24.9785 22.1066 25.2363 22.1066 25.5527L22.1066 28.4258L8.31934 28.4258L8.31934 25.5527C8.31934 25.2363 8.06213 24.9785 7.74487 24.9785C7.42761 24.9785 7.17041 25.2363 7.17041 25.5527L7.17041 28.4258L4.2981 28.4258L4.2981 26.6719C4.2981 24.4219 5.52844 22.3613 7.50916 21.2949L10.7257 19.5625L11.1962 23.3262C11.2452 23.7188 11.6687 23.9473 12.0231 23.7695L15.213 22.1738L18.403 23.7695C18.7562 23.9453 19.1807 23.7207 19.2299 23.3262L19.7003 19.5625L22.9169 21.2949C24.8975 22.3613 26.1279 24.4219 26.1279 26.6719L26.1279 28.4258Z" fill="#FFFFFF" fill-opacity="1.000000" fill-rule="nonzero"/>
		<path id="Vector" d="M19.8087 7.16992L7.74487 7.16992C7.42761 7.16992 7.17041 7.42773 7.17041 7.74414L7.17041 15.7871C7.17041 16.1035 7.42761 16.3613 7.74487 16.3613L19.8087 16.3613C20.126 16.3613 20.3832 16.1035 20.3832 15.7871L20.3832 7.74414C20.3832 7.42773 20.126 7.16992 19.8087 7.16992ZM19.2343 15.2129L8.31934 15.2129L8.31934 8.31836L19.2343 8.31836L19.2343 15.2129Z" fill="#FFFFFF" fill-opacity="1.000000" fill-rule="nonzero"/>
		<path id="Vector" d="M21.532 10.6172L22.1064 10.6172C22.4237 10.6172 22.6809 10.3613 22.6809 10.043C22.6809 9.72656 22.4237 9.46875 22.1064 9.46875L21.532 9.46875C21.2147 9.46875 20.9575 9.72656 20.9575 10.043C20.9575 10.3613 21.2147 10.6172 21.532 10.6172Z" fill="#FFFFFF" fill-opacity="1.000000" fill-rule="nonzero"/>
		<path id="Vector" d="M21.532 12.3398L22.1064 12.3398C22.4237 12.3398 22.6809 12.084 22.6809 11.7656C22.6809 11.4492 22.4237 11.1914 22.1064 11.1914L21.532 11.1914C21.2147 11.1914 20.9575 11.4492 20.9575 11.7656C20.9575 12.084 21.2147 12.3398 21.532 12.3398Z" fill="#FFFFFF" fill-opacity="1.000000" fill-rule="nonzero"/>
		<path id="Vector" d="M21.8192 13.4883C21.3441 13.4883 20.9575 13.875 20.9575 14.3496C20.9575 14.8242 21.3441 15.2109 21.8192 15.2109C22.2943 15.2109 22.6809 14.8242 22.6809 14.3496C22.6809 13.875 22.2943 13.4883 21.8192 13.4883ZM21.8192 14.6367C21.6609 14.6367 21.532 14.5078 21.532 14.3496C21.532 14.1914 21.6609 14.0625 21.8192 14.0625C21.9777 14.0625 22.1064 14.1914 22.1064 14.3496C22.1064 14.5078 21.9777 14.6367 21.8192 14.6367Z" fill="#FFFFFF" fill-opacity="1.000000" fill-rule="nonzero"/>
		<path id="Vector" d="M16.936 10.043L17.5105 10.043L17.5105 10.6172C17.5105 10.9355 17.7677 11.1934 18.085 11.1934C18.4022 11.1934 18.6594 10.9355 18.6594 10.6172L18.6594 9.46875C18.6594 9.15234 18.4022 8.89453 18.085 8.89453L16.936 8.89453C16.6188 8.89453 16.3616 9.15234 16.3616 9.46875C16.3616 9.78711 16.6188 10.043 16.936 10.043Z" fill="#FFFFFF" fill-opacity="1.000000" fill-rule="nonzero"/>
		<path id="Vector" d="M9.46802 11.1934C9.78528 11.1934 10.0425 10.9355 10.0425 10.6172L10.0425 10.043L10.6169 10.043C10.9342 10.043 11.1914 9.78711 11.1914 9.46875C11.1914 9.15234 10.9342 8.89453 10.6169 8.89453L9.46802 8.89453C9.15076 8.89453 8.89355 9.15234 8.89355 9.46875L8.89355 10.6172C8.89355 10.9355 9.15076 11.1934 9.46802 11.1934Z" fill="#FFFFFF" fill-opacity="1.000000" fill-rule="nonzero"/>
		<path id="Vector" d="M9.46802 14.6387L10.6169 14.6387C10.9342 14.6387 11.1914 14.3809 11.1914 14.0625C11.1914 13.7461 10.9342 13.4883 10.6169 13.4883L10.0425 13.4883L10.0425 12.9141C10.0425 12.5977 9.78528 12.3398 9.46802 12.3398C9.15076 12.3398 8.89355 12.5977 8.89355 12.9141L8.89355 14.0625C8.89355 14.3809 9.15076 14.6387 9.46802 14.6387Z" fill="#FFFFFF" fill-opacity="1.000000" fill-rule="nonzero"/>
		<path id="Vector" d="M16.936 14.6387L18.085 14.6387C18.4022 14.6387 18.6594 14.3809 18.6594 14.0625L18.6594 12.9141C18.6594 12.5977 18.4022 12.3398 18.085 12.3398C17.7677 12.3398 17.5105 12.5977 17.5105 12.9141L17.5105 13.4883L16.936 13.4883C16.6188 13.4883 16.3616 13.7461 16.3616 14.0625C16.3616 14.3809 16.6188 14.6387 16.936 14.6387Z" fill="#FFFFFF" fill-opacity="1.000000" fill-rule="nonzero"/>
	</g>
</svg>
