<svg width="109" height="107" viewBox="0 0 109 107" fill="none" xmlns="http://www.w3.org/2000/svg">
<mask id="mask0_3024_24171" style="mask-type:alpha" maskUnits="userSpaceOnUse" x="0" y="0" width="109" height="107">
<ellipse cx="54.5" cy="53.5" rx="54.5" ry="53.5" fill="#333333"/>
</mask>
<g mask="url(#mask0_3024_24171)">
<ellipse cx="54.5" cy="53.5" rx="54.5" ry="53.5" fill="#23272E"/>
<path fill-rule="evenodd" clip-rule="evenodd" d="M23.4248 6.1782C23.7527 6.08944 24.1126 6.11105 24.4453 6.26478C25.1974 6.61236 25.5255 7.50372 25.1782 8.25568C25.1759 8.2606 25.1736 8.26554 25.1713 8.27049C24.6529 10.3628 24.1261 12.3373 23.543 14.2405C23.0738 16.9072 22.7242 20.1313 22.5818 23.6638C22.3027 30.5893 22.8299 38.4563 24.6791 45.2109C24.8979 46.01 24.4275 46.8349 23.6284 47.0534C22.8294 47.2718 22.0043 46.8012 21.7855 46.0021C19.8823 39.0502 19.326 31.0991 19.5632 24.107C19.5317 24.1671 19.5001 24.2273 19.4683 24.2874C16.7303 29.4672 12.8346 34.6971 6.70962 41.1653C6.13964 41.7672 5.18918 41.7949 4.58672 41.227C3.98425 40.6592 3.95791 39.7109 4.52789 39.109C10.5359 32.7643 14.2418 27.755 16.8122 22.8924C18.4243 19.8427 19.6047 16.8231 20.6235 13.522C21.0815 10.9783 21.6598 8.83648 22.3179 7.30392C22.32 7.29516 22.3222 7.2864 22.3243 7.27764C22.4623 6.7171 22.8996 6.30796 23.4248 6.1782Z" fill="white"/>
<path d="M70.5034 114.899C25.4329 89.416 7.94283 63.9326 23.4148 9.27734" stroke="white" stroke-width="3" stroke-linecap="round"/>
<path fill-rule="evenodd" clip-rule="evenodd" d="M67.7798 22.0176H53.9107L31.3394 84.8233H40.4948L46.3869 68.2859H66.4568L70.318 64.5357L66.4568 60.7854H49.0157L59.6215 30.7833L70.318 60.7854L72.9468 68.2859L78.8389 84.8233H90.3512L67.7798 22.0176Z" fill="white"/>
</g>
</svg>
