<svg width="64" height="64" viewBox="0 0 64 64" fill="none" xmlns="http://www.w3.org/2000/svg">
<path fill-rule="evenodd" clip-rule="evenodd" d="M31.9998 5.33203C17.2957 5.33203 5.33313 17.2943 5.33313 31.9987C5.33313 46.7031 17.2957 58.6654 31.9998 58.6654C46.7039 58.6654 58.6665 46.7031 58.6665 31.9987C58.6665 17.2943 46.7039 5.33203 31.9998 5.33203ZM52.5257 19.5543C54.7306 23.1809 56 27.443 56 31.9989C56 36.5549 54.7306 40.8143 52.5257 44.4436C52.1248 45.1032 51.6918 45.7441 51.2321 46.3583C50.7698 46.9752 50.2807 47.5681 49.7649 48.1369C48.7332 49.2719 47.592 50.3107 46.36 51.2294C46.0526 51.4617 45.7372 51.6834 45.4192 51.8997C44.1417 52.7649 42.7787 53.5073 41.3408 54.1109C40.9827 54.2658 40.6192 54.41 40.253 54.5435C39.5154 54.8106 38.7644 55.0456 37.9974 55.2432C36.0811 55.7372 34.0713 55.9989 32 55.9989C18.7466 55.9989 8.00004 45.2528 8.00004 31.9989C8.00004 18.7451 18.7466 7.99894 32 7.99894C34.0713 7.99894 36.0811 8.26065 37.9974 8.7547C38.7644 8.95232 39.5154 9.18465 40.253 9.45705C40.6192 9.59057 40.9827 9.73211 41.3408 9.88433C42.7787 10.4905 44.1417 11.2356 45.4192 12.0982C45.7372 12.3145 46.0526 12.5362 46.36 12.7685C47.592 13.6898 48.7332 14.7233 49.7649 15.861C50.2807 16.4298 50.7698 17.0253 51.2321 17.6395C51.6918 18.2564 52.1248 18.8947 52.5257 19.5543Z" fill="white"/>
<path d="M40.001 23.9998C39.7509 23.7498 39.4119 23.6094 39.0583 23.6094C38.7048 23.6094 38.3657 23.7498 38.1156 23.9998L32.001 30.1144L25.8863 23.9998C25.6363 23.7498 25.2972 23.6094 24.9436 23.6094C24.5901 23.6094 24.251 23.7498 24.001 23.9998C23.751 24.2498 23.6106 24.5889 23.6106 24.9424C23.6106 25.296 23.751 25.6351 24.001 25.8851L30.1156 31.9998L24.001 38.1144C23.751 38.3645 23.6106 38.7035 23.6106 39.0571C23.6106 39.4106 23.751 39.7497 24.001 39.9998C24.251 40.2497 24.5901 40.3901 24.9436 40.3901C25.2972 40.3901 25.6363 40.2497 25.8863 39.9998L32.001 33.8851L38.1156 39.9998C38.3657 40.2497 38.7048 40.3901 39.0583 40.3901C39.4119 40.3901 39.7509 40.2497 40.001 39.9998C40.2509 39.7497 40.3914 39.4106 40.3914 39.0571C40.3914 38.7035 40.2509 38.3645 40.001 38.1144L33.8863 31.9998L40.001 25.8851C40.2509 25.6351 40.3914 25.296 40.3914 24.9424C40.3914 24.5889 40.2509 24.2498 40.001 23.9998Z" fill="white"/>
</svg>
