<svg width="64" height="64" viewBox="0 0 64 64" fill="none" xmlns="http://www.w3.org/2000/svg">
<path fill-rule="evenodd" clip-rule="evenodd" d="M31.9998 5.33398C17.2957 5.33398 5.33313 17.2962 5.33313 32.0007C5.33313 46.7051 17.2957 58.6673 31.9998 58.6673C46.7039 58.6673 58.6665 46.7051 58.6665 32.0007C58.6665 17.2962 46.7039 5.33398 31.9998 5.33398ZM52.5257 19.5563C54.7306 23.1828 56 27.445 56 32.0009C56 36.5568 54.7306 40.8163 52.5257 44.4455C52.1248 45.1052 51.6918 45.7461 51.2321 46.3603C50.7698 46.9772 50.2807 47.57 49.7649 48.1389C48.7332 49.2738 47.592 50.3127 46.36 51.2313C46.0526 51.4637 45.7372 51.6853 45.4192 51.9016C44.1417 52.7669 42.7787 53.5093 41.3408 54.1128C40.9827 54.2677 40.6192 54.4119 40.253 54.5455C39.5154 54.8125 38.7644 55.0475 37.9974 55.2451C36.0811 55.7392 34.0713 56.0009 32 56.0009C18.7466 56.0009 8.00004 45.2547 8.00004 32.0009C8.00004 18.7471 18.7466 8.0009 32 8.0009C34.0713 8.0009 36.0811 8.26261 37.9974 8.75665C38.7644 8.95427 39.5154 9.18661 40.253 9.459C40.6192 9.59253 40.9827 9.73407 41.3408 9.88628C42.7787 10.4925 44.1417 11.2376 45.4192 12.1001C45.7372 12.3165 46.0526 12.5381 46.36 12.7705C47.592 13.6918 48.7332 14.7253 49.7649 15.8629C50.2807 16.4317 50.7698 17.0273 51.2321 17.6415C51.6918 18.2584 52.1248 18.8966 52.5257 19.5563ZM22.71 31.5342L29.0443 37.8689L44.4928 22.4192L46.3806 24.3056L29.0443 41.6442L20.8222 33.4231L22.71 31.5342Z" fill="white"/>
</svg>
