<svg width="16" height="16" viewBox="0 0 16 16" fill="none" xmlns="http://www.w3.org/2000/svg">
<g clip-path="url(#clip0_1593_15565)">
<path d="M9.22952 11.5123L7.05486 13.6869C6.42347 14.3015 5.57553 14.6427 4.69449 14.6368C3.81345 14.6309 2.97016 14.2783 2.34706 13.6554C1.72397 13.0325 1.37119 12.1893 1.36504 11.3082C1.35888 10.4272 1.69986 9.57917 2.31419 8.94761L4.48886 6.77095C4.61386 6.64585 4.68406 6.47623 4.68399 6.29938C4.68393 6.12253 4.61362 5.95295 4.48852 5.82795C4.36343 5.70294 4.1938 5.63275 4.01696 5.63281C3.84011 5.63288 3.67053 5.70319 3.54553 5.82828L1.37153 8.00495C0.49304 8.88387 -0.000312421 10.0758 1.48434e-07 11.3185C0.000312718 12.5611 0.494265 13.7528 1.37319 14.6313C2.25212 15.5098 3.44403 16.0031 4.6867 16.0028C5.92938 16.0025 7.12104 15.5085 7.99952 14.6296L10.1742 12.4549C10.2956 12.3292 10.3628 12.1608 10.3613 11.986C10.3598 11.8112 10.2897 11.644 10.1661 11.5204C10.0425 11.3968 9.87526 11.3267 9.70046 11.3252C9.52566 11.3236 9.35726 11.3908 9.23152 11.5123H9.22952Z" fill="#1A1B22"/>
<path d="M14.629 1.37402C14.1952 0.937226 13.679 0.590869 13.1104 0.355014C12.5417 0.119159 11.9319 -0.0015043 11.3163 1.64272e-05C10.701 -0.00161806 10.0915 0.118735 9.52304 0.354117C8.95456 0.589499 8.43837 0.93524 8.00433 1.37135L5.82633 3.54668C5.70123 3.67169 5.63092 3.84127 5.63086 4.01811C5.6308 4.19496 5.70099 4.36459 5.82599 4.48968C5.951 4.61478 6.12058 4.68509 6.29743 4.68515C6.47427 4.68521 6.6439 4.61502 6.76899 4.49002L8.94566 2.31535C9.25603 2.00312 9.62525 1.75555 10.032 1.58699C10.4387 1.41843 10.8747 1.33222 11.315 1.33335C11.9778 1.33357 12.6257 1.5303 13.1768 1.89868C13.7278 2.26706 14.1573 2.79055 14.4109 3.40296C14.6645 4.01538 14.7308 4.68923 14.6015 5.33933C14.4721 5.98944 14.153 6.58661 13.6843 7.05535L11.5097 9.23002C11.3846 9.35511 11.3143 9.52477 11.3143 9.70168C11.3143 9.87859 11.3846 10.0483 11.5097 10.1733C11.6348 10.2984 11.8044 10.3687 11.9813 10.3687C12.1582 10.3687 12.3279 10.2984 12.453 10.1733L14.6277 8.00002C15.505 7.12075 15.9979 5.92942 15.9981 4.68729C15.9984 3.44517 15.506 2.25364 14.629 1.37402Z" fill="#1A1B22"/>
<path d="M9.52774 5.52894L5.52774 9.52894C5.46407 9.59044 5.41328 9.664 5.37834 9.74534C5.3434 9.82667 5.32501 9.91415 5.32424 10.0027C5.32347 10.0912 5.34034 10.179 5.37386 10.2609C5.40738 10.3428 5.45689 10.4173 5.51948 10.4799C5.58208 10.5425 5.65651 10.592 5.73844 10.6255C5.82037 10.659 5.90816 10.6759 5.99668 10.6751C6.0852 10.6743 6.17268 10.6559 6.25401 10.621C6.33535 10.5861 6.40891 10.5353 6.47041 10.4716L10.4704 6.4716C10.5918 6.34587 10.659 6.17747 10.6575 6.00267C10.656 5.82787 10.5859 5.66066 10.4623 5.53706C10.3387 5.41345 10.1715 5.34334 9.99668 5.34182C9.82188 5.3403 9.65348 5.4075 9.52774 5.52894Z" fill="#1A1B22"/>
</g>
<defs>
<clipPath id="clip0_1593_15565">
<rect width="16" height="16" fill="white"/>
</clipPath>
</defs>
</svg>
