<svg width="14" height="14" viewBox="0 0 14 14" fill="none" xmlns="http://www.w3.org/2000/svg">
<path d="M13.0001 0.999818C12.8125 0.812347 12.5582 0.707031 12.2931 0.707031C12.0279 0.707031 11.7736 0.812347 11.5861 0.999818L7.00006 5.58582L2.41406 0.999818C2.22653 0.812347 1.97223 0.707031 1.70706 0.707031C1.4419 0.707031 1.18759 0.812347 1.00006 0.999818C0.812591 1.18735 0.707275 1.44165 0.707275 1.70682C0.707275 1.97198 0.812591 2.22629 1.00006 2.41382L5.58606 6.99982L1.00006 11.5858C0.812591 11.7733 0.707275 12.0277 0.707275 12.2928C0.707275 12.558 0.812591 12.8123 1.00006 12.9998C1.18759 13.1873 1.4419 13.2926 1.70706 13.2926C1.97223 13.2926 2.22653 13.1873 2.41406 12.9998L7.00006 8.41382L11.5861 12.9998C11.7736 13.1873 12.0279 13.2926 12.2931 13.2926C12.5582 13.2926 12.8125 13.1873 13.0001 12.9998C13.1875 12.8123 13.2928 12.558 13.2928 12.2928C13.2928 12.0277 13.1875 11.7733 13.0001 11.5858L8.41406 6.99982L13.0001 2.41382C13.1875 2.22629 13.2928 1.97198 13.2928 1.70682C13.2928 1.44165 13.1875 1.18735 13.0001 0.999818Z" fill="#1A1B22"/>
</svg>
