<svg width="32.000000" height="32.000000" viewBox="0 0 32 32" fill="none" xmlns="http://www.w3.org/2000/svg" xmlns:xlink="http://www.w3.org/1999/xlink">
	<desc>
			Created with Pixso.
	</desc>
	<defs>
		<clipPath id="clip2_3591">
			<rect id="Frame 1010105109" width="32.000000" height="32.000000" fill="white" fill-opacity="0"/>
		</clipPath>
	</defs>
	<g clip-path="url(#clip2_3591)">
		<path id="Vector" d="M7.05688 10.8086L13.1705 11.9961C13.1958 11.9961 13.2211 11.9961 13.2463 11.9961C13.4232 11.9961 13.6 11.8691 13.6252 11.668C13.6758 11.4395 13.5242 11.2383 13.3221 11.2129L7.20837 10.0254C7.00635 9.97461 6.77893 10.127 6.75366 10.3281C6.70312 10.5566 6.85474 10.7578 7.05688 10.8086Z" fill="#FFFFFF" fill-opacity="1.000000" fill-rule="evenodd"/>
		<path id="Vector" d="M13.3221 14.2969L7.20837 13.084C7.00635 13.0332 6.77893 13.1855 6.75366 13.3867C6.70312 13.6152 6.85474 13.8164 7.05688 13.8418L13.1705 15.0293C13.1958 15.0293 13.2211 15.0293 13.2463 15.0293C13.4232 15.0293 13.6 14.9023 13.6252 14.7012C13.6758 14.5488 13.5494 14.3223 13.3221 14.2969Z" fill="#FFFFFF" fill-opacity="1.000000" fill-rule="evenodd"/>
		<path id="Vector" d="M13.3221 17.3535L7.20837 16.166C7.00635 16.1152 6.77893 16.2676 6.75366 16.4688C6.70312 16.6973 6.85474 16.8984 7.05688 16.9238L13.1705 18.1367C13.1958 18.1367 13.2211 18.1367 13.2463 18.1367C13.4232 18.1367 13.6 18.0098 13.6252 17.8086C13.6758 17.6055 13.5494 17.4043 13.3221 17.3535Z" fill="#FFFFFF" fill-opacity="1.000000" fill-rule="evenodd"/>
		<path id="Vector" d="M13.3221 20.4102L7.20837 19.2227C7.00635 19.1719 6.77893 19.3242 6.75366 19.5254C6.70312 19.7539 6.85474 19.9551 7.05688 19.9805L13.1705 21.168C13.1958 21.168 13.2211 21.168 13.2463 21.168C13.4232 21.168 13.6 21.041 13.6252 20.8398C13.6758 20.6621 13.5494 20.4609 13.3221 20.4102Z" fill="#FFFFFF" fill-opacity="1.000000" fill-rule="evenodd"/>
		<path id="Vector" d="M27.8484 6.08594C27.7473 6.00977 27.6464 5.98438 27.52 6.00977L16 8.2832L4.47998 6.00977C4.35364 5.98438 4.25269 6.00977 4.15161 6.08594C4.05054 6.16016 4 6.26172 4 6.38867L4 22.5566C4 22.7598 4.12634 22.9102 4.32837 22.9355L15.9242 25.209C15.9495 25.209 15.9747 25.209 16 25.209C16.0253 25.209 16.0505 25.209 16.0758 25.209L27.6716 22.9355C27.8484 22.9102 28 22.7344 28 22.5566L28 6.38867C28 6.26172 27.9495 6.16016 27.8484 6.08594ZM4.7832 6.86914L15.5958 8.99023L15.5958 24.3496L4.7832 22.2285L4.7832 6.86914ZM27.2168 22.2285L16.4042 24.3496L16.4042 8.99023L27.2168 6.86914L27.2168 22.2285Z" fill="#FFFFFF" fill-opacity="1.000000" fill-rule="evenodd"/>
		<path id="Vector" d="M18.7538 12.0234C18.7791 12.0234 18.8043 12.0234 18.8296 12.0234L24.9432 10.8105C25.1707 10.7598 25.2969 10.5566 25.2465 10.3555C25.1959 10.127 24.9938 10.002 24.7916 10.0527L18.678 11.2402C18.4506 11.2891 18.3243 11.4922 18.3749 11.6934C18.4001 11.8711 18.5516 12.0234 18.7538 12.0234Z" fill="#FFFFFF" fill-opacity="1.000000" fill-rule="evenodd"/>
		<path id="Vector" d="M18.7538 15.0801C18.7791 15.0801 18.8043 15.0801 18.8296 15.0801L24.9432 13.8926C25.1707 13.8418 25.2969 13.6387 25.2465 13.4375C25.1959 13.209 24.9938 13.084 24.7916 13.1348L18.678 14.3223C18.4506 14.3711 18.3243 14.5742 18.3749 14.7754C18.4001 14.9531 18.5516 15.0801 18.7538 15.0801Z" fill="#FFFFFF" fill-opacity="1.000000" fill-rule="evenodd"/>
		<path id="Vector" d="M18.7538 18.1367C18.7791 18.1367 18.8043 18.1367 18.8296 18.1367L24.9432 16.9492C25.1707 16.8984 25.2969 16.6953 25.2465 16.4941C25.1959 16.2656 24.9938 16.1406 24.7916 16.1914L18.678 17.3789C18.4506 17.4277 18.3243 17.6309 18.3749 17.832C18.4001 18.0098 18.5516 18.1367 18.7538 18.1367Z" fill="#FFFFFF" fill-opacity="1.000000" fill-rule="evenodd"/>
		<path id="Vector" d="M24.7916 19.2227L18.678 20.4102C18.4506 20.4609 18.3243 20.6621 18.3749 20.8652C18.4001 21.0664 18.5769 21.1934 18.7538 21.1934C18.7791 21.1934 18.8043 21.1934 18.8296 21.1934L24.9432 20.0059C25.1707 19.9551 25.2969 19.7539 25.2465 19.5508C25.1959 19.3242 24.9938 19.1719 24.7916 19.2227Z" fill="#FFFFFF" fill-opacity="1.000000" fill-rule="evenodd"/>
	</g>
</svg>
