<svg width="32.000000" height="32.000000" viewBox="0 0 32 32" fill="none" xmlns="http://www.w3.org/2000/svg" xmlns:xlink="http://www.w3.org/1999/xlink">
	<desc>
			Created with Pixso.
	</desc>
	<defs>
		<clipPath id="clip2_3562">
			<rect id="Frame 1010105108" width="32.000000" height="32.000000" fill="white" fill-opacity="0"/>
		</clipPath>
	</defs>
	<g clip-path="url(#clip2_3562)">
		<path id="Vector" d="M29.5 7L2.5 7C2.10229 7 1.72107 7.1582 1.43982 7.43945C1.15857 7.7207 1.00049 8.10156 1 8.5L1 11.5C1 11.6328 1.05273 11.7598 1.14648 11.8535C1.24023 11.9473 1.36743 12 1.5 12C2.42822 12 3.31848 12.3691 3.97485 13.0254C4.63123 13.6816 5 14.5723 5 15.5C5 16.4277 4.63123 17.3184 3.97485 17.9746C3.31848 18.6309 2.42822 19 1.5 19C1.36743 19 1.24023 19.0527 1.14648 19.1465C1.05273 19.2402 1 19.3672 1 19.5L1 22.5C1.00049 22.8984 1.15857 23.2793 1.43982 23.5605C1.72107 23.8418 2.10229 24 2.5 24L29.5 24C29.8977 24 30.2789 23.8418 30.5602 23.5605C30.8414 23.2793 30.9995 22.8984 31 22.5L31 8.5C30.9995 8.10156 30.8414 7.7207 30.5602 7.43945C30.2789 7.1582 29.8977 7 29.5 7ZM30 22.5C29.9999 22.6328 29.9471 22.7598 29.8534 22.8535C29.7596 22.9473 29.6326 23 29.5 23L10 23L10 22.5C10 22.3672 9.94727 22.2402 9.85352 22.1465C9.75977 22.0527 9.63257 22 9.5 22C9.36743 22 9.24023 22.0527 9.14648 22.1465C9.05273 22.2402 9 22.3672 9 22.5L9 23L2.5 23C2.36743 23 2.24036 22.9473 2.14661 22.8535C2.05286 22.7598 2.00012 22.6328 2 22.5L2 19.9727C3.1001 19.8496 4.11621 19.3242 4.85413 18.5C5.59216 17.6758 6.00012 16.6074 6.00012 15.5C6.00012 14.3926 5.59216 13.3242 4.85413 12.5C4.11621 11.6758 3.1001 11.1504 2 11.0273L2 8.5C2.00012 8.36719 2.05286 8.24023 2.14661 8.14648C2.24036 8.05273 2.36743 8 2.5 8L9 8L9 8.5C9 8.63281 9.05273 8.75977 9.14648 8.85352C9.24023 8.94727 9.36743 9 9.5 9C9.63257 9 9.75977 8.94727 9.85352 8.85352C9.94727 8.75977 10 8.63281 10 8.5L10 8L29.5 8C29.6326 8 29.7596 8.05273 29.8534 8.14648C29.9471 8.24023 29.9999 8.36719 30 8.5L30 22.5ZM10 10.5L10 12.5C10 12.6328 9.94727 12.7598 9.85352 12.8535C9.75977 12.9473 9.63257 13 9.5 13C9.36743 13 9.24023 12.9473 9.14648 12.8535C9.05273 12.7598 9 12.6328 9 12.5L9 10.5C9 10.3672 9.05273 10.2402 9.14648 10.1465C9.24023 10.0527 9.36743 10 9.5 10C9.63257 10 9.75977 10.0527 9.85352 10.1465C9.94727 10.2402 10 10.3672 10 10.5ZM10 14.5L10 16.5C10 16.6328 9.94727 16.7598 9.85352 16.8535C9.75977 16.9473 9.63257 17 9.5 17C9.36743 17 9.24023 16.9473 9.14648 16.8535C9.05273 16.7598 9 16.6328 9 16.5L9 14.5C9 14.3672 9.05273 14.2402 9.14648 14.1465C9.24023 14.0527 9.36743 14 9.5 14C9.63257 14 9.75977 14.0527 9.85352 14.1465C9.94727 14.2402 10 14.3672 10 14.5ZM10 18.5L10 20.5C10 20.6328 9.94727 20.7598 9.85352 20.8535C9.75977 20.9473 9.63257 21 9.5 21C9.36743 21 9.24023 20.9473 9.14648 20.8535C9.05273 20.7598 9 20.6328 9 20.5L9 18.5C9 18.3672 9.05273 18.2402 9.14648 18.1465C9.24023 18.0527 9.36743 18 9.5 18C9.63257 18 9.75977 18.0527 9.85352 18.1465C9.94727 18.2402 10 18.3672 10 18.5ZM23.8535 11.6465C23.9473 11.7402 23.9999 11.8672 23.9999 12C23.9999 12.1328 23.9473 12.2598 23.8535 12.3535L16.8535 19.3535C16.7593 19.4453 16.6328 19.4961 16.5016 19.4941C16.3702 19.4941 16.2446 19.4414 16.1519 19.3477C16.059 19.2559 16.0063 19.1289 16.0054 18.998C16.0044 18.8672 16.0551 18.7402 16.1465 18.6465L23.1465 11.6465C23.2402 11.5527 23.3674 11.5 23.5 11.5C23.6326 11.5 23.7598 11.5527 23.8535 11.6465ZM22.5 16.5C22.2034 16.5 21.9133 16.5879 21.6666 16.752C21.4199 16.918 21.2277 17.1523 21.1141 17.4258C21.0006 17.6992 20.9709 18.002 21.0288 18.293C21.0867 18.584 21.2296 18.8516 21.4393 19.0605C21.6492 19.2695 21.9164 19.4141 22.2074 19.4707C22.4983 19.5293 22.7999 19.5 23.074 19.3867C23.3481 19.2715 23.5824 19.0801 23.7472 18.834C23.912 18.5859 24 18.2969 24 18C23.9995 17.6016 23.8414 17.2207 23.5602 16.9395C23.2789 16.6582 22.8977 16.5 22.5 16.5ZM22.5 18.5C22.4011 18.5 22.3044 18.4707 22.2222 18.416C22.14 18.3613 22.0759 18.2832 22.0381 18.1914C22.0002 18.0996 21.9904 18 22.0096 17.9023C22.0289 17.8047 22.0765 17.7168 22.1465 17.6465C22.2164 17.5762 22.3054 17.5293 22.4025 17.5098C22.4994 17.4902 22.6 17.5 22.6913 17.5371C22.7827 17.5762 22.8608 17.6406 22.9158 17.7227C22.9707 17.8047 23 17.9004 23 18C22.9999 18.1328 22.9471 18.2598 22.8534 18.3535C22.7596 18.4473 22.6326 18.5 22.5 18.5ZM17.5 14.5C17.7966 14.5 18.0867 14.4121 18.3334 14.248C18.5801 14.082 18.7723 13.8477 18.8859 13.5742C18.9994 13.3008 19.0291 12.998 18.9712 12.707C18.9133 12.416 18.7704 12.1484 18.5607 11.9395C18.3508 11.7305 18.0836 11.5859 17.7926 11.5293C17.5017 11.4707 17.2001 11.5 16.926 11.6133C16.6519 11.7285 16.4176 11.9199 16.2528 12.166C16.088 12.4141 16 12.7031 16 13C16.0005 13.3984 16.1586 13.7793 16.4398 14.0605C16.7211 14.3418 17.1023 14.5 17.5 14.5ZM17.5 12.5C17.5989 12.5 17.6956 12.5293 17.7778 12.584C17.86 12.6387 17.9241 12.7168 17.9619 12.8086C17.9998 12.9004 18.0096 13 17.9904 13.0977C17.9711 13.1953 17.9235 13.2832 17.8535 13.3535C17.7836 13.4238 17.6946 13.4707 17.5975 13.4902C17.5006 13.5098 17.4 13.5 17.3087 13.4629C17.2173 13.4238 17.1392 13.3594 17.0842 13.2773C17.0293 13.1953 17 13.0996 17 13C17.0001 12.8672 17.0529 12.7402 17.1466 12.6465C17.2404 12.5527 17.3674 12.5 17.5 12.5Z" fill="#FFFFFF" fill-opacity="1.000000" fill-rule="evenodd"/>
	</g>
</svg>
