<svg width="36.000000" height="36.000000" viewBox="0 0 36 36" fill="none" xmlns="http://www.w3.org/2000/svg" xmlns:xlink="http://www.w3.org/1999/xlink">
	<desc>
			Created with Pixso.
	</desc>
	<defs>
		<clipPath id="clip4_15671">
			<rect id="Support" width="20.000000" height="20.000000" transform="translate(8.000000 8.000000)" fill="white" fill-opacity="0"/>
		</clipPath>
		<clipPath id="clip4_15672">
			<rect id="quest" width="36.000000" height="36.000000" fill="white" fill-opacity="0"/>
		</clipPath>
	</defs>
	<rect id="quest" width="36.000000" height="36.000000" fill="#FFFFFF" fill-opacity="0"/>
	<g clip-path="url(#clip4_15672)">
		<rect id="Support" width="20.000000" height="20.000000" transform="translate(8.000000 8.000000)" fill="#FFFFFF" fill-opacity="0"/>
		<g clip-path="url(#clip4_15671)">
			<path id="Vector" d="M18 24.875C19.8242 24.875 21.5723 24.1504 22.8613 22.8613C24.1504 21.5723 24.875 19.8242 24.875 18C24.875 16.1758 24.1504 14.4277 22.8613 13.1387C21.5723 11.8496 19.8242 11.125 18 11.125C16.1758 11.125 14.4277 11.8496 13.1387 13.1387C11.8496 14.4277 11.125 16.1758 11.125 18C11.125 19.8242 11.8496 21.5723 13.1387 22.8613C14.4277 24.1504 16.1758 24.875 18 24.875ZM18 26.75C20.3203 26.75 22.5469 25.8281 24.1875 24.1875C25.8281 22.5469 26.75 20.3203 26.75 18C26.75 15.6797 25.8281 13.4531 24.1875 11.8125C22.5469 10.1719 20.3203 9.25 18 9.25C15.6797 9.25 13.4531 10.1719 11.8125 11.8125C10.1719 13.4531 9.25 15.6797 9.25 18C9.25 20.3203 10.1719 22.5469 11.8125 24.1875C13.4531 25.8281 15.6797 26.75 18 26.75ZM16.0508 13.6758C16.5879 13.2324 17.293 12.9688 18 12.9688C19.5215 12.9688 20.9258 13.9941 20.9258 15.6445C20.9258 16.1152 20.8262 16.5742 20.5527 17.0195C20.293 17.4434 19.9121 17.7871 19.459 18.1016C19.1875 18.293 19.0508 18.4238 18.9844 18.5117C18.9375 18.5781 18.9375 18.5996 18.9375 18.623C18.9375 18.873 18.8379 19.1113 18.6621 19.2871C18.4863 19.4629 18.248 19.5605 18 19.5605C17.752 19.5605 17.5137 19.4629 17.3379 19.2871C17.1621 19.1113 17.0625 18.873 17.0625 18.623C17.0625 17.6309 17.7422 17.0156 18.3828 16.5684C18.7344 16.3223 18.8828 16.1523 18.957 16.0352C19.0254 15.918 19.0586 15.7812 19.0488 15.6445C19.0488 15.2695 18.7441 14.8438 18 14.8438C17.7227 14.8496 17.4551 14.9473 17.2402 15.123C17.0312 15.2949 16.9512 15.4805 16.9512 15.6445C16.9512 15.8945 16.8516 16.1328 16.6758 16.3086C16.5 16.4844 16.2617 16.582 16.0137 16.582C15.7656 16.582 15.5273 16.4844 15.3516 16.3086C15.1758 16.1328 15.0762 15.8945 15.0762 15.6445C15.0762 14.8027 15.5078 14.1191 16.0508 13.6738L16.0508 13.6758ZM18 23C18.332 23 18.6504 22.8691 18.8848 22.6348C19.1191 22.4004 19.25 22.082 19.25 21.75C19.25 21.418 19.1191 21.0996 18.8848 20.8652C18.6504 20.6309 18.332 20.5 18 20.5C17.668 20.5 17.3496 20.6309 17.1152 20.8652C16.8809 21.0996 16.75 21.418 16.75 21.75C16.75 22.082 16.8809 22.4004 17.1152 22.6348C17.3496 22.8691 17.668 23 18 23Z" fill="#000000" fill-opacity="0.850980" fill-rule="evenodd"/>
		</g>
	</g>
</svg>
