<svg width="21" height="21" viewBox="0 0 21 21" fill="none" xmlns="http://www.w3.org/2000/svg">
<path d="M20.71 19.2894L17 15.6094C18.4401 13.8138 19.1375 11.5347 18.9488 9.24072C18.7601 6.94672 17.6997 4.8122 15.9855 3.27606C14.2714 1.73992 12.0338 0.918926 9.73295 0.981887C7.43207 1.04485 5.24275 1.98698 3.61517 3.61456C1.98759 5.24214 1.04546 7.43145 0.982497 9.73234C0.919537 12.0332 1.74053 14.2708 3.27667 15.9849C4.81281 17.6991 6.94733 18.7595 9.24133 18.9482C11.5353 19.1369 13.8144 18.4395 15.61 16.9994L19.29 20.6794C19.383 20.7731 19.4936 20.8475 19.6154 20.8983C19.7373 20.9491 19.868 20.9752 20 20.9752C20.132 20.9752 20.2627 20.9491 20.3846 20.8983C20.5065 20.8475 20.6171 20.7731 20.71 20.6794C20.8903 20.493 20.991 20.2438 20.991 19.9844C20.991 19.7251 20.8903 19.4759 20.71 19.2894ZM10 16.9994C8.61556 16.9994 7.26218 16.5889 6.11103 15.8197C4.95989 15.0505 4.06268 13.9573 3.53287 12.6782C3.00306 11.3991 2.86443 9.99165 3.13453 8.63378C3.40463 7.27592 4.07131 6.02864 5.05028 5.04967C6.02925 4.0707 7.27653 3.40402 8.63439 3.13392C9.99226 2.86382 11.3997 3.00245 12.6788 3.53226C13.9579 4.06207 15.0511 4.95928 15.8203 6.11042C16.5895 7.26157 17 8.61495 17 9.99942C17 11.8559 16.2625 13.6364 14.9498 14.9492C13.637 16.2619 11.8565 16.9994 10 16.9994Z" fill="#797981"/>
</svg>
