<svg width="32.000000" height="32.000000" viewBox="0 0 32 32" fill="none" xmlns="http://www.w3.org/2000/svg" xmlns:xlink="http://www.w3.org/1999/xlink">
	<desc>
			Created with Pixso.
	</desc>
	<defs>
		<clipPath id="clip2_3597">
			<rect id="Frame 1010105109" width="32.000000" height="32.000000" fill="white" fill-opacity="0"/>
		</clipPath>
	</defs>
	<g clip-path="url(#clip2_3597)">
		<path id="Vector" d="M17.5015 0C17.1615 0 16.8315 0.0253906 16.5015 0.0605469C16.1715 0.0253906 15.8414 0 15.5015 0C11.3615 0 8.00146 2.95312 8.00146 6.5918L8.00146 8.78711L4.50146 8.78711C4.24146 8.78711 4.03149 8.96289 4.00146 9.18359L2.00146 28.5176C1.99146 28.6406 2.03149 28.7637 2.13147 28.8516C2.23145 28.9395 2.36145 29 2.50146 29L24.5015 29C24.5715 29 24.6315 28.9922 24.6915 28.9648L29.6915 27.207C29.8915 27.1367 30.0115 26.9609 30.0015 26.7773L29.0015 9.20117C28.9915 8.96289 28.7715 8.7793 28.5015 8.7793L26.5015 8.7793L25.0015 8.7793L25.0015 6.5918C25.0015 2.95312 21.6415 0 17.5015 0ZM24.0015 6.5918L24.0015 8.78711L23.0015 8.78711L23.0015 6.5918C23.0015 4.42969 21.8015 2.51367 19.9714 1.30859C22.3315 2.16211 24.0015 4.20898 24.0015 6.5918ZM16.5015 0.957031C19.6115 1.37891 22.0015 3.74414 22.0015 6.5918L22.0015 8.78711L11.0015 8.78711L11.0015 6.5918C11.0015 3.74414 13.3915 1.37891 16.5015 0.957031ZM9.00146 6.5918C9.00146 4.20898 10.6715 2.16211 13.0315 1.30859C11.2015 2.51367 10.0015 4.42969 10.0015 6.5918L10.0015 8.78711L9.00146 8.78711L9.00146 6.5918ZM26.9615 9.66602L28.0315 9.66602L28.9915 26.5137L25.0815 27.8926L26.9615 9.66602ZM25.9515 9.66602L24.0415 28.1211L3.0415 28.1211L4.95154 9.66602L8.00146 9.66602L8.00146 12.7422C8.00146 12.9883 8.22144 13.1816 8.50146 13.1816C8.78149 13.1816 9.00146 12.9883 9.00146 12.7422L9.00146 9.66602L22.0015 9.66602L22.0015 12.7422C22.0015 12.9883 22.2214 13.1816 22.5015 13.1816C22.7815 13.1816 23.0015 12.9883 23.0015 12.7422L23.0015 9.66602L25.9515 9.66602Z" fill="#FFFFFF" fill-opacity="1.000000" fill-rule="nonzero"/>
		<path id="Vector" d="M14.5015 12.3027C9.81152 12.3027 6.00146 15.6504 6.00146 19.7715C6.00146 23.8945 9.81152 27.2422 14.5015 27.2422C19.1914 27.2422 23.0015 23.8945 23.0015 19.7715C23.0015 15.6504 19.1914 12.3027 14.5015 12.3027ZM18.5415 21.6348C18.5415 21.8809 18.3214 22.0742 18.0415 22.0742C17.7615 22.0742 17.5415 21.8809 17.5415 21.6348L17.5415 17.7246L11.3214 23.1914C11.2214 23.2793 11.0914 23.3223 10.9714 23.3223C10.8514 23.3223 10.7114 23.2793 10.6215 23.1914C10.4215 23.0156 10.4215 22.7422 10.6215 22.5664L16.8414 17.1016L12.3915 17.1016C12.1115 17.1016 11.8915 16.9082 11.8915 16.6621C11.8915 16.416 12.1115 16.2227 12.3915 16.2227L18.0515 16.2227C18.1215 16.2227 18.1815 16.2305 18.2415 16.2578C18.3214 16.2832 18.3915 16.3359 18.4414 16.3984C18.4514 16.416 18.4614 16.4238 18.4714 16.4414C18.5115 16.5039 18.5415 16.582 18.5415 16.6621L18.5415 21.6348Z" fill="#FFFFFF" fill-opacity="1.000000" fill-rule="nonzero"/>
	</g>
</svg>
