<svg width="36.000000" height="36.000000" viewBox="0 0 36 36" fill="none" xmlns="http://www.w3.org/2000/svg" xmlns:xlink="http://www.w3.org/1999/xlink">
	<desc>
			Created with Pixso.
	</desc>
	<defs>
		<clipPath id="clip4_15674">
			<rect id="Settings" width="20.000000" height="20.000000" transform="translate(8.000000 8.000000)" fill="white" fill-opacity="0"/>
		</clipPath>
		<clipPath id="clip4_15675">
			<rect id="settings" width="36.000000" height="36.000000" fill="white" fill-opacity="0"/>
		</clipPath>
	</defs>
	<rect id="settings" width="36.000000" height="36.000000" fill="#FFFFFF" fill-opacity="0"/>
	<g clip-path="url(#clip4_15675)">
		<rect id="Settings" width="20.000000" height="20.000000" transform="translate(8.000000 8.000000)" fill="#FFFFFF" fill-opacity="0"/>
		<g clip-path="url(#clip4_15674)">
			<path id="Vector" d="M16.998 10.5L18.998 10.5C19.0645 10.5 19.1289 10.5254 19.1758 10.5723C19.2227 10.6191 19.248 10.6836 19.248 10.75C19.248 13.0098 21.6973 14.4238 23.6543 13.293C23.7109 13.2598 23.7793 13.252 23.8418 13.2676C23.9062 13.2852 23.959 13.3262 23.9922 13.3828L24.9961 15.1191C25.0117 15.1465 25.0215 15.1777 25.0273 15.2109C25.0312 15.2422 25.0293 15.2754 25.0195 15.3086C25.0117 15.3398 24.9961 15.3691 24.9766 15.3945C24.957 15.4199 24.9316 15.4434 24.9043 15.459C22.9473 16.5879 22.9473 19.4141 24.9043 20.5449C24.9609 20.5781 25.002 20.6328 25.0195 20.6953C25.0371 20.7598 25.0273 20.8262 24.9961 20.8828L23.9922 22.6191C23.959 22.6758 23.9062 22.7168 23.8418 22.7344C23.7793 22.752 23.7109 22.7422 23.6543 22.7109C21.6973 21.5781 19.248 22.9922 19.248 25.25C19.248 25.3164 19.2227 25.3789 19.1758 25.4258C19.1289 25.4727 19.0664 25.5 19 25.5L16.998 25.5C16.9668 25.5 16.9336 25.4941 16.9023 25.4805C16.873 25.4688 16.8457 25.4512 16.8223 25.4277C16.7988 25.4043 16.7793 25.377 16.7676 25.3457C16.7559 25.3164 16.748 25.2832 16.748 25.25C16.748 22.9902 14.3008 21.5781 12.3438 22.707C12.3164 22.7246 12.2852 22.7344 12.252 22.7383C12.2188 22.7422 12.1875 22.7402 12.1543 22.7324C12.123 22.7246 12.0938 22.709 12.0684 22.6895C12.043 22.6699 12.0195 22.6445 12.0039 22.6172L11.0039 20.8809C10.9707 20.8242 10.9629 20.7559 10.9785 20.6934C10.9961 20.6289 11.0371 20.5762 11.0938 20.543C13.0508 19.4121 13.0508 16.5859 11.0938 15.4551C11.0371 15.4219 10.9961 15.3672 10.9785 15.3047C10.9609 15.2402 10.9707 15.1738 11.002 15.1172L12.0039 13.3809C12.0195 13.3535 12.043 13.3281 12.0684 13.3086C12.0938 13.2891 12.123 13.2734 12.1543 13.2656C12.1875 13.2559 12.2188 13.2539 12.252 13.2578C12.2852 13.2637 12.3164 13.2734 12.3438 13.2891C14.3008 14.4219 16.748 13.0078 16.748 10.75C16.748 10.6133 16.8594 10.5 16.998 10.5ZM14.873 10.75C14.873 9.57422 15.8242 8.625 16.998 8.625L18.998 8.625C20.1738 8.625 21.123 9.57422 21.123 10.75C21.125 10.9355 21.1738 11.1191 21.2676 11.2793C21.3594 11.4414 21.4941 11.5742 21.6562 11.668C21.8164 11.7617 22 11.8105 22.1855 11.8105C22.373 11.8105 22.5547 11.7617 22.7168 11.668C23.2051 11.3867 23.7832 11.3105 24.3281 11.457C24.8711 11.6035 25.334 11.959 25.6172 12.4453L26.6191 14.1816C27.2051 15.1973 26.8574 16.4941 25.8418 17.082C25.6797 17.1738 25.5469 17.3086 25.4531 17.4707C25.3594 17.6309 25.3105 17.8145 25.3105 18.002C25.3105 18.1875 25.3594 18.3711 25.4531 18.5332C25.5469 18.6934 25.6797 18.8281 25.8418 18.9219C26.3281 19.2031 26.6836 19.666 26.8301 20.2109C26.9766 20.7539 26.9004 21.334 26.6191 21.8203L25.6172 23.5566C25.334 24.043 24.8711 24.4004 24.3281 24.5449C23.7832 24.6914 23.2051 24.6152 22.7168 24.334C22.5547 24.2402 22.373 24.1914 22.1855 24.1914C22 24.1914 21.8164 24.2422 21.6562 24.334C21.4941 24.4277 21.3594 24.5605 21.2676 24.7227C21.1738 24.8828 21.125 25.0664 21.123 25.252C21.123 26.4258 20.1738 27.377 19 27.377L16.998 27.377C16.4355 27.377 15.8945 27.1523 15.498 26.7539C15.0996 26.3555 14.875 25.8164 14.875 25.252C14.875 25.0664 14.8262 24.8828 14.7324 24.7227C14.6387 24.5605 14.5059 24.4277 14.3438 24.334C14.1816 24.2422 14 24.1914 13.8125 24.1914C13.627 24.1914 13.4434 24.2402 13.2832 24.334C13.041 24.4727 12.7754 24.5645 12.498 24.5996C12.2227 24.6367 11.9414 24.6172 11.6719 24.5449C11.4023 24.4727 11.1504 24.3496 10.9297 24.1797C10.707 24.0098 10.5215 23.7969 10.3828 23.5566L9.38086 21.8203C9.09961 21.334 9.02344 20.7539 9.16797 20.2109C9.31445 19.666 9.66992 19.2031 10.1582 18.9219C10.3184 18.8281 10.4531 18.6934 10.5449 18.5332C10.6387 18.3711 10.6875 18.1875 10.6875 18.002C10.6875 17.8164 10.6387 17.6328 10.5449 17.4707C10.4531 17.3105 10.3184 17.1758 10.1582 17.082C9.91602 16.9434 9.70508 16.7578 9.53516 16.5371C9.36523 16.3145 9.24023 16.0625 9.16797 15.793C9.0957 15.5234 9.07812 15.2422 9.11328 14.9668C9.15039 14.6895 9.24023 14.4219 9.38086 14.1816L10.3809 12.4453C10.6641 11.959 11.127 11.6035 11.6699 11.457C12.2148 11.3105 12.793 11.3867 13.2812 11.668C13.4434 11.7617 13.625 11.8105 13.8125 11.8105C13.998 11.8105 14.1816 11.7617 14.3418 11.668C14.5039 11.5742 14.6387 11.4414 14.7305 11.2793C14.8242 11.1191 14.873 10.9355 14.873 10.75ZM19.873 18C19.873 18.498 19.6758 18.9746 19.3242 19.3262C18.9727 19.6777 18.4961 19.875 17.998 19.875C17.502 19.875 17.0254 19.6777 16.6738 19.3262C16.3223 18.9746 16.123 18.498 16.123 18C16.123 17.502 16.3223 17.0254 16.6738 16.6738C17.0254 16.3223 17.502 16.125 17.998 16.125C18.4961 16.125 18.9727 16.3223 19.3242 16.6738C19.6758 17.0254 19.873 17.502 19.873 18ZM21.748 18C21.748 18.9941 21.3535 19.9492 20.6504 20.6523C19.9473 21.3555 18.9941 21.75 17.998 21.75C17.0039 21.75 16.0508 21.3555 15.3477 20.6523C14.6445 19.9492 14.248 18.9941 14.248 18C14.248 17.0059 14.6445 16.0508 15.3477 15.3477C16.0508 14.6445 17.0039 14.25 17.998 14.25C18.9941 14.25 19.9473 14.6445 20.6504 15.3477C21.3535 16.0508 21.748 17.0059 21.748 18Z" fill="#000000" fill-opacity="0.850980" fill-rule="evenodd"/>
		</g>
	</g>
</svg>
