<svg width="24" height="24" viewBox="0 0 24 24" fill="none" xmlns="http://www.w3.org/2000/svg">
<path d="M18.707 8.28578C18.5193 8.10279 18.2647 8 17.9993 8C17.7339 8 17.4794 8.10279 17.2917 8.28578L12.7016 12.762C12.5113 12.9401 12.2577 13.0396 11.994 13.0396C11.7302 13.0396 11.4766 12.9401 11.2863 12.762L6.69623 8.28578C6.50746 8.10798 6.25463 8.0096 5.9922 8.01182C5.72977 8.01405 5.47873 8.1167 5.29316 8.29767C5.10758 8.47864 5.00232 8.72345 5.00004 8.97937C4.99776 9.23529 5.09864 9.48185 5.28096 9.66594L9.87006 14.1422C10.1489 14.4141 10.4799 14.6299 10.8443 14.7771C11.2086 14.9242 11.5991 15 11.9935 15C12.3878 15 12.7783 14.9242 13.1427 14.7771C13.507 14.6299 13.838 14.4141 14.1169 14.1422L18.707 9.66594C18.8946 9.4829 19 9.23467 19 8.97586C19 8.71704 18.8946 8.46882 18.707 8.28578Z" fill="#797981"/>
</svg>
