<svg width="25" height="24" viewBox="0 0 25 24" fill="none" xmlns="http://www.w3.org/2000/svg">
<path d="M18.881 8.28578C18.6933 8.10279 18.4388 8 18.1734 8C17.908 8 17.6535 8.10279 17.4658 8.28578L12.8757 12.762C12.6854 12.9401 12.4318 13.0396 12.168 13.0396C11.9043 13.0396 11.6507 12.9401 11.4604 12.762L6.8703 8.28578C6.68153 8.10798 6.4287 8.0096 6.16627 8.01182C5.90384 8.01405 5.6528 8.1167 5.46723 8.29767C5.28165 8.47864 5.17639 8.72345 5.17411 8.97937C5.17183 9.23529 5.27271 9.48185 5.45504 9.66594L10.0441 14.1422C10.323 14.4141 10.654 14.6299 11.0183 14.7771C11.3827 14.9242 11.7732 15 12.1675 15C12.5619 15 12.9524 14.9242 13.3167 14.7771C13.6811 14.6299 14.0121 14.4141 14.2909 14.1422L18.881 9.66594C19.0687 9.4829 19.1741 9.23467 19.1741 8.97586C19.1741 8.71704 19.0687 8.46882 18.881 8.28578Z" fill="#87CC9E"/>
</svg>
